<svg width="49" height="49" viewBox="0 0 49 49" fill="none" xmlns="http://www.w3.org/2000/svg">
<g clip-path="url(#clip0)">
<path d="M15.6199 11.181L18.2699 14.871H16.1299C15.5799 14.871 15.1299 15.321 15.1299 15.871V33.051L12.5399 36.901H9.8899V15.871C9.8899 15.321 9.4399 14.871 8.8899 14.871H1.1499V11.181H15.6199ZM16.1299 10.181H0.149902V15.871H8.8899V37.901H13.0699L16.1299 33.361V15.871H20.2199L16.1299 10.181Z" fill="black"/>
<path d="M19.75 10.181H27.98L32.07 16.101L27.79 21.891L19.75 10.181Z" fill="black"/>
<path d="M39.4099 10.181L19.8499 37.901H27.3699L33.6699 28.141L40.1999 37.901H48.1499L38.2299 23.951L47.5399 10.181H39.4099Z" fill="black"/>
</g>
<defs>
<clipPath id="clip0">
<rect width="48" height="48" fill="white" transform="translate(0.149902 0.0410156)"/>
</clipPath>
</defs>
</svg>
