<svg width="49" height="28" viewBox="0 0 49 28" fill="none" xmlns="http://www.w3.org/2000/svg">
<path d="M15.6199 1.18103L18.2699 4.87103H16.1299C15.5799 4.87103 15.1299 5.32103 15.1299 5.87103V23.051L12.5399 26.901H9.8899V5.87103C9.8899 5.32103 9.4399 4.87103 8.8899 4.87103H1.1499V1.18103H15.6199ZM16.1299 0.18103H0.149902V5.87103H8.8899V27.901H13.0699L16.1299 23.361V5.87103H20.2199L16.1299 0.18103Z" fill="white"/>
<path d="M19.75 0.18103H27.98L32.07 6.10103L27.79 11.891L19.75 0.18103Z" fill="white"/>
<path d="M39.4101 0.18103L19.8501 27.901H27.3701L33.6701 18.141L40.2001 27.901H48.1501L38.2301 13.951L47.5401 0.18103H39.4101Z" fill="white"/>
</svg>
