<svg width="51" height="37" viewBox="0 0 51 37" fill="none" xmlns="http://www.w3.org/2000/svg">
<path fill-rule="evenodd" clip-rule="evenodd" d="M9.36641 2.29514C9.81544 1.84597 9.81533 1.11783 9.36616 0.668797C8.91699 0.219762 8.18885 0.219872 7.73982 0.669042C3.02413 5.38616 0.375 11.7831 0.375 18.4531C0.375 25.1231 3.02413 31.52 7.73982 36.2371C8.18885 36.6863 8.91699 36.6864 9.36616 36.2374C9.81533 35.7883 9.81544 35.0602 9.36641 34.611C5.0819 30.3252 2.675 24.5132 2.675 18.4531C2.675 12.393 5.0819 6.58094 9.36641 2.29514ZM43.3084 0.669042C42.8594 0.219872 42.1312 0.219762 41.6821 0.668797C41.2329 1.11783 41.2328 1.84597 41.6818 2.29514C45.9663 6.58094 48.3732 12.393 48.3732 18.4531C48.3732 24.5132 45.9663 30.3252 41.6818 34.611C41.2328 35.0602 41.2329 35.7883 41.6821 36.2374C42.1312 36.6864 42.8594 36.6863 43.3084 36.2371C48.0241 31.52 50.6732 25.1231 50.6732 18.4531C50.6732 11.7831 48.0241 5.38616 43.3084 0.669042ZM16.159 9.06491C16.6084 8.61606 16.6088 7.88792 16.1599 7.43857C15.7111 6.98921 14.9829 6.98881 14.5336 7.43766C13.0876 8.88207 11.9404 10.5973 11.1578 12.4854C10.3751 14.3734 9.97224 16.3972 9.97224 18.4411C9.97224 20.4849 10.3751 22.5087 11.1578 24.3968C11.9404 26.2848 13.0876 28.0001 14.5336 29.4445C14.9829 29.8934 15.7111 29.893 16.1599 29.4436C16.6088 28.9942 16.6084 28.2661 16.159 27.8173C14.9269 26.5865 13.9494 25.1248 13.2824 23.516C12.6155 21.9072 12.2722 20.1827 12.2722 18.4411C12.2722 16.6995 12.6155 14.975 13.2824 13.3662C13.9494 11.7573 14.9269 10.2957 16.159 9.06491ZM36.5146 7.46167C36.0653 7.01281 35.3371 7.01322 34.8883 7.46257C34.4394 7.91192 34.4398 8.64006 34.8892 9.08892C36.1214 10.3197 37.0989 11.7813 37.7658 13.3902C38.4327 14.999 38.776 16.7235 38.776 18.4651C38.776 20.2067 38.4327 21.9312 37.7658 23.54C37.0989 25.1489 36.1214 26.6105 34.8892 27.8413C34.4398 28.2901 34.4394 29.0183 34.8883 29.4676C35.3371 29.917 36.0653 29.9174 36.5146 29.4685C37.9606 28.0241 39.1078 26.3088 39.8905 24.4208C40.6731 22.5327 41.076 20.5089 41.076 18.4651C41.076 16.4212 40.6731 14.3974 39.8905 12.5094C39.1078 10.6213 37.9606 8.90608 36.5146 7.46167ZM21.8741 18.4539C21.8741 16.4376 23.5087 14.803 25.525 14.803C27.5413 14.803 29.1758 16.4376 29.1758 18.4539C29.1758 20.4702 27.5413 22.1047 25.525 22.1047C23.5087 22.1047 21.8741 20.4702 21.8741 18.4539ZM25.525 12.503C22.2384 12.503 19.5741 15.1673 19.5741 18.4539C19.5741 21.7404 22.2384 24.4047 25.525 24.4047C28.8116 24.4047 31.4758 21.7404 31.4758 18.4539C31.4758 15.1673 28.8116 12.503 25.525 12.503Z" fill="#D23200"/>
</svg>
