<svg width="47" height="47" viewBox="0 0 47 47" fill="none" xmlns="http://www.w3.org/2000/svg">
<path fill-rule="evenodd" clip-rule="evenodd" d="M12.1793 2.26262C14.0426 0.813317 16.5006 0 18.95 0C20.3085 0 21.3767 0.460973 22.1827 1.17746C22.4992 1.45881 22.7686 1.77322 22.9982 2.10397C23.101 2.252 23.2698 2.34028 23.45 2.34028C23.6302 2.34028 23.799 2.252 23.9018 2.10397C24.1314 1.77321 24.4008 1.45881 24.7173 1.17746C25.5233 0.460973 26.5914 0 27.95 0C30.3994 0 32.8574 0.813317 34.7207 2.26262C36.2114 3.42203 37.3405 5.00951 37.7411 6.90925C37.7914 7.14805 37.9931 7.32511 38.2364 7.34411C39.0924 7.41097 39.888 7.76705 40.5718 8.32146C41.6164 9.16843 42.4013 10.464 42.9072 11.8805C43.6937 14.0829 43.9006 16.8763 43.0946 19.2294C43.0033 19.4958 43.128 19.7882 43.3836 19.9066C43.5765 19.9961 43.7641 20.101 43.9457 20.2221C44.6751 20.7083 45.2433 21.4123 45.6747 22.2751C46.524 23.9737 46.9 26.4016 46.9 29.45C46.9 32.7186 45.6603 34.8602 44.1308 36.1713C43.1658 36.9984 42.0959 37.4851 41.1875 37.7219C40.9799 37.7761 40.8227 37.946 40.7848 38.1572C40.5015 39.7388 39.7021 41.5932 38.4418 43.1685C36.8059 45.2134 34.3028 46.9 30.95 46.9C28.3376 46.9 26.2309 45.4535 24.8253 43.981C24.4772 43.6163 24.1645 43.2425 23.8902 42.8762C23.7864 42.7375 23.6232 42.6559 23.45 42.6559C23.2768 42.6559 23.1136 42.7375 23.0098 42.8762C22.7355 43.2425 22.4228 43.6163 22.0747 43.981C20.6691 45.4535 18.5624 46.9 15.95 46.9C12.5972 46.9 10.0941 45.2134 8.45817 43.1685C7.19795 41.5932 6.39846 39.7388 6.11517 38.1572C6.07734 37.946 5.92015 37.7761 5.71253 37.7219C4.80415 37.4851 3.73423 36.9984 2.76925 36.1713C1.23965 34.8602 0 32.7186 0 29.45C0 26.4016 0.376007 23.9737 1.22529 22.2751C1.65669 21.4123 2.22491 20.7083 2.95428 20.222C3.13593 20.101 3.32351 19.9961 3.51643 19.9066C3.77195 19.7882 3.8967 19.4958 3.80543 19.2294C2.99939 16.8763 3.20628 14.0829 3.99285 11.8805C4.49873 10.464 5.28365 9.16843 6.32825 8.32146C7.01202 7.76705 7.80761 7.41097 8.6636 7.34411C8.9069 7.32511 9.10859 7.14805 9.15894 6.90925C9.55948 5.00951 10.6886 3.42203 12.1793 2.26262ZM18.95 2.15C16.9518 2.15 14.9645 2.82006 13.4992 3.95972C12.0466 5.08954 11.15 6.63745 11.15 8.45C11.15 8.83573 10.9646 9.19795 10.6517 9.42349C10.3387 9.64903 9.93646 9.7104 9.57053 9.58842C9.24544 9.48006 8.92342 9.45235 8.60004 9.52223C8.27904 9.5916 7.97674 9.75277 7.68232 9.99148C7.03936 10.5128 6.4395 11.4223 6.01759 12.6036C5.15958 15.006 5.2272 17.9525 6.44846 19.7844C6.5823 19.9851 6.64997 20.2171 6.65 20.4499C6.65002 20.6156 6.78433 20.7499 6.95 20.7499H9.2C12.7622 20.7499 15.65 23.6377 15.65 27.1999V28.2061C15.65 28.3332 15.7301 28.4465 15.85 28.4889C17.4817 29.0656 18.65 30.6218 18.65 32.45C18.65 34.7696 16.7696 36.65 14.45 36.65C12.1304 36.65 10.25 34.7696 10.25 32.45C10.25 30.6218 11.4183 29.0656 13.05 28.4889C13.1699 28.4465 13.25 28.3332 13.25 28.2061V27.1999C13.25 24.9632 11.4368 23.1499 9.2 23.1499H3.95C3.80154 23.1499 3.66002 23.1231 3.52957 23.0743C3.38605 23.0206 3.22513 23.0837 3.15636 23.2206L3.14831 23.2367C2.52367 24.4859 2.15 26.5114 2.15 29.45C2.15 32.1108 3.13027 33.649 4.16845 34.5389C5.26397 35.4779 6.48713 35.75 6.95 35.75C7.61274 35.75 8.15 36.2873 8.15 36.95C8.15 38.134 8.77795 40.1265 10.137 41.8254C11.4659 43.4864 13.3964 44.75 15.95 44.75C17.7415 44.75 19.3239 43.749 20.5195 42.4964C21.1075 41.8804 21.5662 41.239 21.8715 40.7097C22.0244 40.4447 22.1305 40.2223 22.1946 40.0582C22.2136 40.0096 22.2268 39.9716 22.2358 39.9433C22.2452 39.9138 22.25 39.8831 22.25 39.8521V15.95C22.25 15.7843 22.1157 15.65 21.95 15.65H18.6939C18.5668 15.65 18.4535 15.7301 18.4111 15.85C17.8344 17.4817 16.2782 18.65 14.45 18.65C12.1304 18.65 10.25 16.7696 10.25 14.45C10.25 12.1304 12.1304 10.25 14.45 10.25C16.2782 10.25 17.8344 11.4183 18.4111 13.05C18.4535 13.1699 18.5668 13.25 18.6939 13.25H21.95C22.1157 13.25 22.25 13.1157 22.25 12.95L22.2501 6.95188L22.2493 6.91416L22.2493 6.91261C22.2484 6.87928 22.2467 6.82625 22.2429 6.75638C22.2354 6.61628 22.2201 6.41047 22.189 6.16134C22.1259 5.65686 22.0017 5.00555 21.7639 4.37135C21.5242 3.73213 21.1931 3.17438 20.7543 2.78439C20.3403 2.41639 19.78 2.15 18.95 2.15ZM27.95 2.15C27.12 2.15 26.5597 2.41639 26.1457 2.78439C25.7069 3.17438 25.3758 3.73213 25.1361 4.37135C24.8983 5.00555 24.7741 5.65686 24.711 6.16134C24.6799 6.41047 24.6646 6.61628 24.6571 6.75639C24.6533 6.82625 24.6516 6.87928 24.6507 6.91261L24.6507 6.91446L24.65 6.94792V33.95C24.65 34.1157 24.7843 34.25 24.95 34.25H27.2C29.4368 34.25 31.25 32.4368 31.25 30.2V24.6939C31.25 24.5668 31.1698 24.4535 31.05 24.4111C29.4183 23.8344 28.25 22.2782 28.25 20.45C28.25 18.1304 30.1304 16.25 32.45 16.25C34.7696 16.25 36.65 18.1304 36.65 20.45C36.65 22.2782 35.4817 23.8344 33.85 24.4111C33.7301 24.4535 33.65 24.5668 33.65 24.6939V30.2C33.65 33.7622 30.7622 36.65 27.2 36.65H24.95C24.7843 36.65 24.65 36.7843 24.65 36.95V39.8521C24.65 39.8831 24.6548 39.9138 24.6642 39.9433C24.6732 39.9716 24.6864 40.0096 24.7054 40.0582C24.7695 40.2223 24.8756 40.4447 25.0285 40.7097C25.3338 41.239 25.7925 41.8804 26.3805 42.4964C27.5761 43.749 29.1585 44.75 30.95 44.75C33.5036 44.75 35.4341 43.4864 36.763 41.8254C38.122 40.1265 38.75 38.134 38.75 36.95C38.75 36.2873 39.2873 35.75 39.95 35.75C40.4129 35.75 41.636 35.4779 42.7315 34.5389C43.7697 33.649 44.75 32.1108 44.75 29.45C44.75 26.5114 44.3763 24.4859 43.7517 23.2367C43.4478 22.6289 43.1046 22.2453 42.7531 22.011C42.4091 21.7816 41.9902 21.65 41.45 21.65C41.0074 21.65 40.6008 21.4064 40.392 21.0162C40.1832 20.626 40.2061 20.1526 40.4515 19.7844C41.6728 17.9525 41.7404 15.006 40.8824 12.6036C40.4605 11.4223 39.8606 10.5128 39.2177 9.99148C38.9233 9.75277 38.621 9.5916 38.3 9.52223C37.9766 9.45235 37.6546 9.48006 37.3295 9.58842C36.9635 9.7104 36.5613 9.64903 36.2483 9.42349C35.9354 9.19795 35.75 8.83573 35.75 8.45C35.75 6.63745 34.8534 5.08954 33.4008 3.95972C31.9355 2.82006 29.9482 2.15 27.95 2.15ZM14.45 12.4C13.3178 12.4 12.4 13.3178 12.4 14.45C12.4 15.5822 13.3178 16.5 14.45 16.5C15.5822 16.5 16.5 15.5822 16.5 14.45C16.5 13.3178 15.5822 12.4 14.45 12.4ZM32.45 18.4C31.3178 18.4 30.4 19.3178 30.4 20.45C30.4 21.5822 31.3178 22.5 32.45 22.5C33.5822 22.5 34.5 21.5822 34.5 20.45C34.5 19.3178 33.5822 18.4 32.45 18.4ZM14.45 30.4C13.3178 30.4 12.4 31.3178 12.4 32.45C12.4 33.5822 13.3178 34.5 14.45 34.5C15.5822 34.5 16.5 33.5822 16.5 32.45C16.5 31.3178 15.5822 30.4 14.45 30.4Z" fill="#D23200"/>
</svg>
