<svg width="38" height="48" viewBox="0 0 38 48" fill="none" xmlns="http://www.w3.org/2000/svg">
<path fill-rule="evenodd" clip-rule="evenodd" d="M19.0299 0.460205L19.0296 0.460224C18.4445 0.539733 17.9934 1.0423 17.9934 1.64917L17.9909 4.04663L8.99245 4.04793C6.34136 4.04793 4.1922 6.19693 4.1922 8.84777V19.6585C4.1922 22.3093 6.34127 24.4583 8.99236 24.4583H29.393C32.0441 24.4583 34.1932 22.3093 34.1932 19.6585V8.84777C34.1932 6.19693 32.0441 4.04793 29.393 4.04793L20.391 4.04663L20.3935 1.669L20.3799 1.46752C20.2928 0.891239 19.7943 0.449219 19.1935 0.449219L19.0299 0.460205ZM33.0004 29.247C35.6515 29.247 37.8006 31.396 37.8006 34.0469V36.219C37.8006 38.6687 36.7311 40.9964 34.8722 42.5922C31.2625 45.691 26.0464 47.2492 19.1927 47.2492C12.34 47.2492 7.12784 45.6915 3.52449 42.5937C1.66832 40.998 0.600586 38.6721 0.600586 36.2244V34.0469C0.600586 31.396 2.74966 29.247 5.40075 29.247H33.0004ZM33.0004 31.6469H5.40075C4.07527 31.6469 3.0007 32.7214 3.0007 34.0469V36.2244C3.0007 37.9727 3.76337 39.6341 5.08921 40.7739C8.26079 43.5005 12.9766 44.8493 19.1927 44.8493C25.4107 44.8493 30.1306 43.4996 33.3088 40.7713C34.6365 39.6315 35.4005 37.9688 35.4005 36.219V34.0469C35.4005 32.7214 34.3259 31.6469 33.0004 31.6469ZM29.393 6.44782H8.99236C7.66688 6.44782 6.59231 7.52228 6.59231 8.84777V19.6585C6.59231 20.984 7.66688 22.0584 8.99236 22.0584H29.393C30.7185 22.0584 31.793 20.984 31.793 19.6585V8.84777C31.793 7.52228 30.7185 6.44782 29.393 6.44782ZM13.7908 11.2477C15.1154 11.2477 16.1892 12.3215 16.1892 13.6459C16.1892 14.9704 15.1154 16.0441 13.7908 16.0441C12.4662 16.0441 11.3924 14.9704 11.3924 13.6459C11.3924 12.3215 12.4662 11.2477 13.7908 11.2477ZM24.5737 11.2477C25.8983 11.2477 26.9721 12.3215 26.9721 13.6459C26.9721 14.9704 25.8983 16.0441 24.5737 16.0441C23.2491 16.0441 22.1753 14.9704 22.1753 13.6459C22.1753 12.3215 23.2491 11.2477 24.5737 11.2477Z" fill="white"/>
</svg>
