<svg width="43" height="48" viewBox="0 0 43 48" fill="none" xmlns="http://www.w3.org/2000/svg">
<path fill-rule="evenodd" clip-rule="evenodd" d="M41.7384 7.04808C41.7468 7.04836 41.7541 7.0486 41.7603 7.0488L41.7508 7.04849C41.7469 7.04837 41.7428 7.04823 41.7384 7.04808ZM17.5621 27.6643C17.6773 27.7796 17.8635 27.7817 17.9813 27.6692L30.1212 16.0811C30.6006 15.6235 31.3602 15.6412 31.8178 16.1206C32.2755 16.6 32.2578 17.3595 31.7784 17.8172L18.5784 30.4172C18.1069 30.8673 17.3622 30.8586 16.9013 30.3977L11.5013 24.9977C11.0327 24.529 11.0327 23.7692 11.5013 23.3006C11.9699 22.832 12.7297 22.832 13.1983 23.3006L17.5621 27.6643ZM1.52736 7.34931L1.54889 7.34867C1.5701 7.348 1.60382 7.34684 1.64837 7.34504C1.73749 7.34145 1.87209 7.33522 2.04765 7.32484C2.39889 7.30408 2.91349 7.26675 3.55543 7.20073C4.84072 7.06855 6.62892 6.82218 8.63402 6.36646C12.6773 5.44752 17.4512 3.71075 20.8195 0.482735C21.2837 0.0379163 22.016 0.0379163 22.4801 0.482735C25.8485 3.71074 30.6225 5.44752 34.6659 6.36646C36.6711 6.82218 38.4594 7.06855 39.7447 7.20073C40.3867 7.26675 40.9013 7.30408 41.2525 7.32484C41.4281 7.33522 41.5627 7.34145 41.6518 7.34504C41.6964 7.34684 41.7301 7.34799 41.7513 7.34867L41.7736 7.34933L41.7768 7.34942L41.7779 7.34944C42.4295 7.36486 42.9501 7.89757 42.9501 8.54912V20.2491C42.9501 31.5261 36.9529 42.8241 22.0078 47.4945C21.7747 47.5673 21.525 47.5673 21.2919 47.4945C13.8631 45.173 8.60593 41.1989 5.2139 36.308C1.82809 31.426 0.35011 25.7027 0.35011 19.9491V8.54923C0.350098 7.89756 0.870946 7.36497 1.52229 7.34944L1.52736 7.34931ZM3.02514 9.66057C2.86969 9.67357 2.75013 9.80353 2.75013 9.95953L2.75011 19.9491C2.75012 25.2956 4.12202 30.5223 7.18603 34.9403C10.1773 39.2534 14.829 42.8652 21.5568 45.0597C21.6172 45.0795 21.6824 45.0795 21.7429 45.0597C28.4927 42.8579 33.1996 39.2123 36.2172 34.8289C39.2334 30.4476 40.5501 25.3465 40.5501 20.2491V9.95954C40.5501 9.80354 40.4306 9.67357 40.2751 9.66058C40.0406 9.64098 39.7811 9.61713 39.4992 9.58814C38.1407 9.44844 36.2539 9.18857 34.134 8.70678C30.292 7.8336 25.5541 6.2029 21.8413 3.12557C21.7302 3.03354 21.5694 3.03354 21.4584 3.12557C17.7456 6.20289 13.0078 7.8336 9.16592 8.70678C7.04609 9.18857 5.15936 9.44844 3.80095 9.58814C3.51906 9.61713 3.25958 9.64098 3.02514 9.66057Z" fill="#212121"/>
</svg>
