<svg width="47" height="49" viewBox="0 0 47 49" fill="none" xmlns="http://www.w3.org/2000/svg">
<g clip-path="url(#clip0)">
<path d="M23.15 15.3284C18.35 15.3284 14.45 19.2284 14.45 24.0284C14.45 28.8284 18.35 32.7284 23.15 32.7284C25.65 32.7284 28.04 31.6484 29.69 29.7584C31.08 28.1684 31.85 26.1384 31.85 24.0284C31.85 23.1584 31.72 22.2984 31.47 21.4684C30.34 17.7984 27 15.3284 23.15 15.3284ZM23.15 30.3284C19.68 30.3284 16.85 27.4984 16.85 24.0284C16.85 20.5584 19.68 17.7284 23.15 17.7284C26.62 17.7284 29.45 20.5584 29.45 24.0284C29.45 27.4984 26.62 30.3284 23.15 30.3284Z" fill="#212121"/>
<path d="M45.22 29.2584L42.17 27.0084C41.22 26.3084 40.65 25.1984 40.65 24.0284C40.65 22.8584 41.22 21.7484 42.17 21.0484L45.22 18.7984C45.75 18.4084 45.97 17.7284 45.78 17.0984C44.72 13.6784 42.87 10.4884 40.43 7.87836C39.98 7.39836 39.28 7.25836 38.68 7.51836L35.24 9.02836C34.77 9.23836 34.28 9.33836 33.77 9.33836C31.88 9.33836 30.3 7.91836 30.1 6.03836L29.68 2.27836C29.61 1.61836 29.13 1.08836 28.48 0.938359C26.75 0.548359 24.96 0.338359 23.18 0.318359C21.38 0.338359 19.58 0.548359 17.84 0.938359C17.2 1.07836 16.72 1.61836 16.64 2.27836L16.22 6.03836C16.09 7.19836 15.41 8.24836 14.4 8.83836C13.38 9.42836 12.13 9.50836 11.06 9.02836L7.60996 7.51836C7.00996 7.25836 6.30996 7.39836 5.85996 7.87836C3.41996 10.4884 1.56996 13.6784 0.509963 17.0984C0.319963 17.7284 0.539963 18.4084 1.06996 18.7984L4.11996 21.0484C5.05996 21.7384 5.62996 22.8584 5.62996 24.0284C5.62996 25.1984 5.06996 26.3184 4.11996 27.0084L1.06996 29.2584C0.539963 29.6484 0.319963 30.3284 0.509963 30.9584C1.56996 34.3784 3.41996 37.5684 5.85996 40.1884C6.30996 40.6684 7.00996 40.8084 7.60996 40.5484L11.07 39.0284C11.54 38.8184 12.04 38.7184 12.55 38.7184C13.19 38.7184 13.83 38.8884 14.4 39.2084C15.41 39.7884 16.09 40.8384 16.23 41.9984L16.65 45.7484C16.72 46.3984 17.19 46.9284 17.83 47.0784C21.33 47.9084 25.02 47.9084 28.52 47.0784C29.15 46.9284 29.62 46.3884 29.7 45.7484L30.12 41.9884C30.25 40.7984 30.91 39.7784 31.92 39.1884C32.94 38.5984 34.19 38.5284 35.27 38.9984L38.73 40.5184C39.32 40.7784 40.03 40.6384 40.47 40.1584C42.91 37.5484 44.76 34.3584 45.82 30.9384C45.98 30.3384 45.75 29.6484 45.22 29.2584ZM43.23 31.0384C42.34 33.5784 40.99 35.8984 39.23 37.9284L39.09 38.0984L36.2 36.8284C34.42 36.0484 32.36 36.1584 30.68 37.1384C29.39 37.8884 28.43 39.0884 27.96 40.5184C27.83 40.9184 27.74 41.3284 27.7 41.7484L27.35 44.8984L27.13 44.9384C25.81 45.1984 24.48 45.3284 23.15 45.3284C21.82 45.3284 20.49 45.1984 19.17 44.9384L18.95 44.8984L18.6 41.7484C18.38 39.8284 17.26 38.1084 15.59 37.1484C13.92 36.1884 11.87 36.0684 10.11 36.8384L7.21996 38.1084L7.07996 37.9384C5.31996 35.8984 3.97996 33.5784 3.07996 31.0384L2.99996 30.8284L5.55996 28.9384C7.10996 27.7884 8.03996 25.9584 8.03996 24.0284C8.03996 22.0984 7.10996 20.2584 5.55996 19.1184L2.99996 17.2284L3.06996 17.0184C3.95996 14.4784 5.30996 12.1584 7.06996 10.1284L7.21996 9.95836L10.09 11.2284C11.87 12.0084 13.93 11.8884 15.6 10.9084C17.26 9.93836 18.39 8.21836 18.6 6.30836L18.95 3.16836L19.17 3.12836C20.48 2.88836 21.82 2.75836 23.17 2.73836C24.5 2.75836 25.83 2.88836 27.13 3.12836L27.35 3.16836L27.7 6.30836C28.04 9.40836 30.65 11.7484 33.76 11.7484C33.76 11.7484 33.76 11.7484 33.77 11.7484C34.62 11.7484 35.44 11.5784 36.21 11.2284L39.08 9.96836L39.22 10.1384C40.98 12.1684 42.32 14.4884 43.22 17.0284L43.29 17.2384L40.74 19.1284C39.18 20.2784 38.24 22.1184 38.24 24.0384C38.24 25.9684 39.17 27.7984 40.74 28.9484L43.3 30.8384L43.23 31.0384Z" fill="#212121"/>
</g>
<defs>
<clipPath id="clip0">
<rect width="46" height="48" fill="white" transform="translate(0.149902 0.0283203)"/>
</clipPath>
</defs>
</svg>
