<svg width="48" height="48" viewBox="0 0 48 48" fill="none" xmlns="http://www.w3.org/2000/svg">
<path fill-rule="evenodd" clip-rule="evenodd" d="M32.3212 17.6913C32.2284 17.6913 32.1393 17.7281 32.0737 17.7938L28.0139 21.8536C27.9089 21.9585 27.8816 22.1182 27.9457 22.2521C28.2047 22.7934 28.3499 23.3998 28.3499 24.0411C28.3499 26.333 26.4919 28.191 24.1999 28.191C21.9079 28.191 20.0499 26.333 20.0499 24.0411C20.0499 21.7491 21.9079 19.8911 24.1999 19.8911C24.8413 19.8911 25.4477 20.0363 25.989 20.2954C26.1229 20.3595 26.2827 20.3321 26.3876 20.2272L30.4482 16.1666C30.5139 16.1009 30.5507 16.0119 30.5507 15.9191L30.5499 7.54125C30.5498 7.2362 30.671 6.94364 30.8867 6.72794L36.8871 0.727948C37.216 0.399067 37.7106 0.30069 38.1403 0.478691C38.57 0.656691 38.8502 1.07602 38.8502 1.54114V9.04115C38.8502 9.23445 39.0069 9.39115 39.2002 9.39115L46.7007 9.3913C47.1658 9.39131 47.5852 9.6715 47.7632 10.1012C47.9412 10.5309 47.8428 11.0256 47.5139 11.3545L41.5139 17.3544C41.2982 17.5701 41.0057 17.6913 40.7007 17.6913H32.3212ZM43.327 12.2887C43.4271 12.1886 43.457 12.0381 43.4028 11.9073C43.3487 11.7765 43.221 11.6912 43.0795 11.6912L37.7002 11.6911C37.0651 11.6911 36.5502 11.1762 36.5502 10.5411V5.16229C36.5502 5.02073 36.4649 4.89311 36.3342 4.83894C36.2034 4.78476 36.0528 4.8147 35.9527 4.9148L32.9524 7.91492C32.8868 7.98056 32.8499 8.0696 32.8499 8.16245L32.8506 15.0413C32.8506 15.2346 33.0073 15.3913 33.2006 15.3913H40.0794C40.1722 15.3913 40.2613 15.3544 40.3269 15.2888L43.327 12.2887ZM47.8498 24.0412C47.8498 21.6777 47.5032 19.3956 46.8582 17.2429L44.98 19.121C45.3527 20.7009 45.5498 22.3483 45.5498 24.0412C45.5498 35.8325 35.9911 45.3911 24.1999 45.3911C12.4087 45.3911 2.85003 35.8325 2.85003 24.0412C2.85003 12.25 12.4087 2.69136 24.1999 2.69136C25.8932 2.69136 27.5408 2.88855 29.1209 3.26135L30.9992 1.38324C28.8462 0.738094 26.5638 0.391378 24.1999 0.391378C11.1385 0.391378 0.550049 10.9798 0.550049 24.0412C0.550049 37.1027 11.1385 47.6911 24.1999 47.6911C37.2614 47.6911 47.8498 37.1027 47.8498 24.0412ZM24.1999 9.39105C25.1049 9.39105 25.9905 9.47307 26.8496 9.63L26.8499 11.9761C25.9959 11.7894 25.1092 11.691 24.1999 11.691C17.3792 11.691 11.85 17.2203 11.85 24.041C11.85 30.8616 17.3792 36.3909 24.1999 36.3909C31.0206 36.3909 36.5498 30.8616 36.5498 24.041C36.5498 23.132 36.4516 22.2455 36.265 21.3918H38.611C38.7678 22.2508 38.8498 23.1362 38.8498 24.041C38.8498 32.1319 32.2908 38.6909 24.1999 38.6909C16.109 38.6909 9.55 32.1319 9.55 24.041C9.55 15.95 16.109 9.39105 24.1999 9.39105Z" fill="#212121"/>
</svg>
