<svg width="48" height="50" viewBox="0 0 48 50" fill="none" xmlns="http://www.w3.org/2000/svg">
<path fill-rule="evenodd" clip-rule="evenodd" d="M10.1773 12.6316H9.43928C4.25361 12.6316 0.0498047 16.8354 0.0498047 22.021C0.0498047 27.2067 4.25361 31.4105 9.43928 31.4105H18.3524C18.4623 30.6051 18.6293 29.8177 18.849 29.0526H9.43928C5.55584 29.0526 2.4077 25.9045 2.4077 22.021C2.4077 18.1376 5.55584 14.9895 9.43928 14.9895H11.334C11.9851 14.9895 12.513 14.4616 12.513 13.8105V13.4947C12.513 7.34403 17.4991 2.35789 23.6498 2.35789C29.8005 2.35789 34.7866 7.34403 34.7866 13.4947V13.8105C34.7866 14.4616 35.3145 14.9895 35.9656 14.9895H37.8603C40.9837 14.9895 43.6305 17.0256 44.5476 19.842C45.5283 20.5174 46.4338 21.2941 47.2488 22.157C47.2495 22.1118 47.2498 22.0665 47.2498 22.021C47.2498 16.8354 43.046 12.6316 37.8603 12.6316H37.1223L37.0895 12.2675C36.4697 5.38988 30.689 0 23.6498 0C16.6106 0 10.8299 5.38988 10.2101 12.2675L10.1773 12.6316ZM25.9499 27.9948V34.8698C25.9499 38.5704 27.7836 41.4392 30.0304 43.5865C31.9248 45.3971 33.9996 46.578 35.1503 47.1537C36.3048 46.5802 38.3846 45.4079 40.2825 43.6256C42.5377 41.5078 44.3499 38.7155 44.3499 35.1671V27.9946C42.8932 27.8974 40.9049 27.6638 39.362 27.0774C37.81 26.4875 36.228 25.2428 35.1491 24.2874C34.0697 25.2426 32.4873 26.4871 30.937 27.0771C29.3944 27.664 27.4064 27.8977 25.9499 27.9948ZM23.6499 34.8698V26.8316C23.6499 26.2453 24.1413 25.772 24.7428 25.752C26.1253 25.7061 28.5184 25.5365 30.119 24.9274C31.6068 24.3613 33.329 22.8683 34.3236 21.9235C34.7779 21.4919 35.5216 21.4921 35.9757 21.9239C36.9694 22.8689 38.6901 24.3615 40.1791 24.9274C41.7806 25.5361 44.1744 25.7058 45.5572 25.7519C46.1586 25.7719 46.6499 26.245 46.6499 26.8312V35.1671C46.6499 43.9851 37.5705 48.5942 35.5452 49.5126C35.2883 49.6291 35.0075 49.6291 34.7508 49.5121C32.7265 48.5897 23.6499 43.9476 23.6499 34.8698Z" fill="black"/>
</svg>
