<?xml version="1.0" encoding="utf-8"?>
<!-- Generator: Adobe Illustrator 25.3.1, SVG Export Plug-In . SVG Version: 6.00 Build 0)  -->
<svg version="1.1" id="Layer_1" xmlns="http://www.w3.org/2000/svg" xmlns:xlink="http://www.w3.org/1999/xlink" x="0px" y="0px"
	 viewBox="0 0 45 50" style="enable-background:new 0 0 45 50;" xml:space="preserve">
<g>
	<path d="M35.6,47H9.2c-0.6,0-1.1,0.5-1.1,1.2s0.5,1.2,1.1,1.2h26.3c0.6,0,1.2-0.5,1.2-1.2S36.2,47,35.6,47z"/>
	<path d="M8.8,30.2v13c0,0.6,0.5,1.2,1.1,1.2h24.8c0.6,0,1.2-0.5,1.2-1.2v-13c0-0.6-0.5-1.2-1.2-1.2H10C9.3,29,8.8,29.6,8.8,30.2z
		 M11.1,31.3h22.5V42H11.1V31.3z"/>
	<path d="M20.1,24.1c0.2,0.2,0.5,0.3,0.7,0.3l1.7,0.1c0,0,0,0,0.1,0c0,0,0,0,0,0c0,0,0,0,0,0s0,0,0,0c0,0,0,0,0,0c0,0,0,0,0.1,0
		l1.7-0.1c0.3,0,0.5-0.1,0.7-0.3c0.1-0.1,2.4-2.3,3.4-6.3c0.2-0.6-0.2-1.2-0.8-1.4c-0.6-0.2-1.2,0.2-1.4,0.8c-0.7,2.5-2,4.3-2.5,4.9
		l-1.2,0.1l-1.2-0.1c-0.6-0.7-1.9-2.4-2.5-4.9c-0.2-0.6-0.8-1-1.4-0.8c-0.6,0.2-1,0.8-0.8,1.4C17.7,21.8,20,24,20.1,24.1z"/>
	<path d="M22.6,12H24l4.4,2.9c0.2,0.1,0.4,0.2,0.6,0.2c0.4,0,0.7-0.2,1-0.5c0.3-0.5,0.2-1.2-0.3-1.6L25,9.9
		c-0.2-0.1-0.4-0.2-0.6-0.2h-1.7h-1.7c-0.2,0-0.4,0.1-0.6,0.2l-4.7,3.1c-0.5,0.3-0.7,1.1-0.3,1.6c0.2,0.3,0.6,0.5,1,0.5
		c0.2,0,0.4-0.1,0.6-0.2l4.4-2.9H22.6z"/>
	<path d="M44.9,38.6l-4.1-13.1c0-0.1,0-0.1-0.1-0.2c-0.1-0.1-1.9-3.6-7.3-6.4l0.8-2.7c0-0.1,0.8-2.3-1-5c-0.2-0.4-0.6-0.9-0.9-1.6
		c-2-3.5-5.5-9.4-9.6-9.4c-4.1,0-7.5,5.9-9.6,9.4c-0.4,0.6-0.7,1.2-0.9,1.6c-1.8,2.7-1,4.9-1,5l0.8,2.7c-5.4,2.8-7.2,6.2-7.3,6.4
		c0,0.1-0.1,0.1-0.1,0.2L0.4,38.6c0,0.1-0.1,0.2-0.1,0.3c0,3,2.1,6.2,5.7,6.2c0.6,0,1.1-0.5,1.1-1.2s-0.5-1.2-1.1-1.2
		c-2.1,0-3.3-1.9-3.4-3.7l4-12.8c0.3-0.5,1.9-2.9,5.9-5.1l0.2,0.7c0,0.1,0.1,0.2,0.2,0.3l2.2,3.1c0.2,0.3,0.6,0.5,0.9,0.5
		c0.2,0,0.5-0.1,0.7-0.2c0.5-0.4,0.6-1.1,0.3-1.6l-2.1-3l-1.6-5.6c0,0-0.4-1.3,0.7-3c0.3-0.4,0.6-1,1-1.7c1.6-2.7,4.8-8.2,7.6-8.2
		s6.1,5.6,7.6,8.2c0.4,0.7,0.8,1.3,1,1.7c1.1,1.7,0.7,2.9,0.7,3l-1.6,5.5l-2.1,3c-0.4,0.5-0.2,1.2,0.3,1.6c0.2,0.1,0.4,0.2,0.7,0.2
		c0.4,0,0.7-0.2,0.9-0.5l2.2-3.1c0.1-0.1,0.1-0.2,0.2-0.3l0.2-0.7c4,2.2,5.6,4.7,5.9,5.1l4,12.8c-0.1,1.8-1.3,3.7-3.4,3.7
		c-0.6,0-1.2,0.5-1.2,1.2s0.5,1.2,1.2,1.2c3.6,0,5.7-3.1,5.7-6.2C44.9,38.9,44.9,38.8,44.9,38.6z"/>
</g>
</svg>
