<svg width="46" height="49" viewBox="0 0 46 49" fill="none" xmlns="http://www.w3.org/2000/svg">
<path fill-rule="evenodd" clip-rule="evenodd" d="M15.1986 43.1152C15.197 43.113 15.1953 43.1108 15.1937 43.1086C15.1953 43.1108 15.197 43.113 15.1986 43.1151M29.4418 36.4033C29.3506 36.4435 29.3029 36.5446 29.3299 36.6405C29.5515 37.4284 29.6701 38.2597 29.6701 39.119C29.6701 44.1636 25.5806 48.2531 20.536 48.2531C17.2589 48.2531 14.3848 46.5275 12.7728 43.9345C12.7203 43.8499 12.6135 43.8169 12.5223 43.857L9.32041 45.2676C7.89107 45.8973 6.22201 45.5883 5.11278 44.4887L1.85444 41.2587C0.708342 40.1225 0.404786 38.3865 1.09736 36.9288L15.6687 6.26094C17.2183 2.99958 21.5614 2.31461 24.0395 4.94074L41.6058 23.5562C44.04 26.1358 43.1874 30.3478 39.9417 31.7777L29.4418 36.4033ZM14.9977 42.7665C14.9428 42.7907 14.9017 42.8382 14.8856 42.8959C14.8696 42.9537 14.8802 43.0156 14.9147 43.0646C16.1569 44.8311 18.2115 45.9862 20.536 45.9862C24.3286 45.9862 27.4032 42.9116 27.4032 39.119C27.4032 38.6092 27.3476 38.1123 27.2422 37.6339C27.2293 37.5753 27.1908 37.5257 27.1373 37.4986C27.0839 37.4714 27.0211 37.4697 26.9662 37.4939L14.9977 42.7665ZM32.8962 0.711609C33.4901 0.909563 33.811 1.55146 33.6131 2.14532L32.2796 6.14566C32.0817 6.73952 31.4398 7.06047 30.8459 6.86251C30.252 6.66456 29.9311 6.02267 30.1291 5.4288L31.4625 1.42846C31.6605 0.834602 32.3023 0.513655 32.8962 0.711609ZM42.6756 3.65228C43.1183 4.09492 43.1183 4.81258 42.6756 5.25522L37.3418 10.589C36.8992 11.0316 36.1815 11.0316 35.7389 10.589C35.2963 10.1464 35.2963 9.42871 35.7389 8.98607L41.0727 3.65228C41.5153 3.20964 42.233 3.20964 42.6756 3.65228ZM22.3908 6.49655C21.0069 5.03001 18.5816 5.41253 17.7162 7.23379L3.14489 37.9017C2.86543 38.4898 2.98792 39.1903 3.45037 39.6488L6.70871 42.8788C7.15629 43.3225 7.82976 43.4472 8.4065 43.1931L39.0278 29.7032C40.8403 28.9047 41.3164 26.5525 39.9571 25.112L22.3908 6.49655ZM39.4047 15.1213C39.4047 14.4953 39.9121 13.9879 40.5381 13.9879H44.5364C45.1624 13.9879 45.6698 14.4953 45.6698 15.1213C45.6698 15.7473 45.1624 16.2548 44.5364 16.2548H40.5381C39.9121 16.2548 39.4047 15.7473 39.4047 15.1213Z" fill="#D23200"/>
</svg>
