<svg width="48" height="46" viewBox="0 0 48 46" fill="none" xmlns="http://www.w3.org/2000/svg">
<path fill-rule="evenodd" clip-rule="evenodd" d="M31.6935 42.8538C31.6977 42.8549 31.7019 42.8561 31.7061 42.8572C31.7019 42.8561 31.6977 42.8549 31.6935 42.8538C31.6935 42.8538 31.6935 42.8538 31.6935 42.8538ZM34.168 29.6411C33.9335 28.652 33.509 28.0413 32.9375 27.2411H43.3998C45.6087 27.2411 47.4219 28.9499 47.5875 31.1165L47.5998 31.4521V33.8411C47.5986 37.2897 46.0069 39.5065 43.8074 40.8889C41.576 42.2913 38.6989 42.8411 36.1998 42.8411C34.892 42.8411 33.4738 42.6878 32.0965 42.3392C32.5866 41.675 33.0076 40.9535 33.3519 40.1727C34.5203 40.3953 35.5755 40.4412 36.1998 40.4412L36.8529 40.4268L36.8658 40.4262C38.0787 40.3731 40.0277 40.1496 41.7357 39.313C43.4714 38.4628 44.9935 36.954 45.1806 34.3765L45.1814 34.3655L45.1998 33.8518V31.4411C45.1998 30.5559 44.5595 29.8225 43.7223 29.6701L43.6956 29.6653L43.4268 29.6411H34.168ZM26.5998 27.2411C28.809 27.2411 30.6219 28.948 30.7875 31.1162L30.7998 31.4521V35.0411C30.7986 38.9749 28.7338 41.494 25.8201 43.0628C22.8751 44.6484 19.0856 45.2411 15.7998 45.2411C12.588 45.2411 8.89218 44.6748 5.97533 43.1665C3.08556 41.6723 0.9933 39.2796 0.81255 35.5706L0.799805 35.0339V31.4387C0.799805 29.2298 2.50869 27.4166 4.67524 27.251L5.01084 27.2387L26.5998 27.2411ZM26.6268 29.6411L4.97011 29.6387L4.66859 29.6686L4.63873 29.6747C4.187 29.7665 3.8836 30.0098 3.72978 30.1609L3.72207 30.1687C3.57205 30.3215 3.32775 30.6234 3.23578 31.0769L3.22972 31.1068L3.1998 31.409V35.0411C3.1998 36.345 3.49197 37.4938 4.12266 38.492C4.75121 39.4869 5.68961 40.2905 6.91611 40.9501C9.00495 42.0751 11.9271 42.7341 15.0196 42.8292L15.7998 42.8411L16.5708 42.8294L16.58 42.8291C19.6723 42.7341 22.5926 42.0749 24.6834 40.9502C25.8319 40.3319 26.7287 39.587 27.3549 38.6756C27.9837 37.7603 28.3168 36.71 28.3861 35.5197L28.3866 35.5108L28.3998 35.0472V31.4411C28.3998 30.5559 27.7595 29.8225 26.9223 29.6701L26.8956 29.6653L26.6268 29.6411ZM15.7998 0.841064C21.4324 0.841064 25.9998 5.40844 25.9998 11.0411C25.9998 16.6737 21.4324 21.2411 15.7998 21.2411C10.1672 21.2411 5.5998 16.6737 5.5998 11.0411C5.5998 5.40844 10.1672 0.841064 15.7998 0.841064ZM37.3998 5.64106C41.7076 5.64106 45.1998 9.13323 45.1998 13.4411C45.1998 17.7489 41.7076 21.2411 37.3998 21.2411C33.092 21.2411 29.5998 17.7489 29.5998 13.4411C29.5998 9.13323 33.092 5.64106 37.3998 5.64106ZM15.7998 3.24106C11.4988 3.24106 7.9998 6.74009 7.9998 11.0411C7.9998 15.342 11.4988 18.8411 15.7998 18.8411C20.1008 18.8411 23.5998 15.342 23.5998 11.0411C23.5998 6.74009 20.1008 3.24106 15.7998 3.24106ZM37.3998 8.04106C34.4212 8.04106 31.9998 10.4625 31.9998 13.4411C31.9998 16.4196 34.4212 18.8411 37.3998 18.8411C40.3784 18.8411 42.7998 16.4196 42.7998 13.4411C42.7998 10.4625 40.3784 8.04106 37.3998 8.04106Z" fill="#212121"/>
</svg>
