<svg width="48" height="48" viewBox="0 0 48 48" fill="none" xmlns="http://www.w3.org/2000/svg">
<path fill-rule="evenodd" clip-rule="evenodd" d="M9.43664 37.6752C9.64901 37.7161 9.84531 37.816 10.0032 37.9632C10.0464 38.013 10.0853 38.0664 10.1194 38.1228L10.16 38.19L10.2081 38.2521C10.2116 38.2566 10.2143 38.2618 10.2161 38.2673L10.2488 38.3678L10.2967 38.4619C10.3011 38.4705 10.3049 38.4794 10.3083 38.4884C10.3104 38.5591 10.3089 38.63 10.3037 38.7006L10.2976 38.7825L10.3015 38.8645C10.3074 38.9876 10.2829 39.1103 10.2301 39.2216L10.2166 39.2502L10.2044 39.2794C10.1489 39.4122 10.0749 39.5364 9.98471 39.6483L9.76039 39.8277C9.72902 39.8461 9.69588 39.8613 9.66145 39.8731L9.57075 39.9043L9.48537 39.9479L9.48137 39.9499H9.15991C9.01182 39.9473 8.86562 39.9161 8.72933 39.858L8.72053 39.8543C8.57973 39.7955 8.44866 39.7159 8.33166 39.6183C8.23406 39.5013 8.15449 39.3702 8.09564 39.2294L8.0919 39.2206C8.03297 39.0823 8.00172 38.9339 7.9999 38.7836L7.9994 38.7421L7.99635 38.7006C7.99496 38.6818 7.99383 38.663 7.99297 38.6442L8.10914 38.4972L8.18387 38.2673C8.18565 38.2618 8.18837 38.2566 8.1919 38.2521L8.24 38.19L8.28059 38.1228C8.31292 38.0693 8.34956 38.0185 8.39012 37.971C8.49244 37.8801 8.61024 37.8082 8.73804 37.7586L8.75577 37.7517L8.7733 37.7444C8.98273 37.6563 9.21355 37.6322 9.43664 37.6752ZM15.6087 38.2879C15.6583 38.1601 15.7302 38.0423 15.8211 37.94C15.8686 37.8994 15.9194 37.8628 15.9729 37.8305L16.0401 37.7899L16.1022 37.7418C16.1051 37.7395 16.1084 37.7376 16.1117 37.736C16.1136 37.7352 16.1154 37.7344 16.1174 37.7338L16.453 37.6219C16.6512 37.6054 16.8508 37.6406 17.0321 37.7247L17.0854 37.7493L17.1406 37.7693C17.2647 37.8142 17.3774 37.8859 17.4707 37.9792C17.564 38.0725 17.6357 38.1852 17.6806 38.3093L17.6934 38.3447L17.7081 38.3792C17.767 38.5175 17.7983 38.6659 17.8001 38.8162L17.8006 38.8577L17.8037 38.8992C17.8068 38.9421 17.8086 38.9851 17.8091 39.0281L17.7204 39.1657L17.6661 39.3326C17.6655 39.3345 17.6647 39.3364 17.6639 39.3382C17.6623 39.3416 17.6604 39.3448 17.6581 39.3477L17.61 39.4098L17.5694 39.477C17.5397 39.5261 17.5065 39.5729 17.4698 39.617C17.3524 39.7152 17.2209 39.7952 17.0795 39.8543L17.0707 39.858C16.9349 39.9159 16.7892 39.9471 16.6417 39.9499C16.3397 39.9477 16.0505 39.8268 15.8368 39.6131C15.6212 39.3974 15.5 39.1049 15.5 38.7999L15.5 38.7891C15.4987 38.6311 15.53 38.4745 15.592 38.3291L15.6007 38.3087L15.6087 38.2879ZM45.5 32.4499H2.8V41.2999C2.8 42.321 3.20562 43.3003 3.92764 44.0223C4.64966 44.7443 5.62892 45.1499 6.65 45.1499H41.65C42.6711 45.1499 43.6503 44.7443 44.3724 44.0223C45.0944 43.3003 45.5 42.321 45.5 41.2999V32.4499ZM2.8 30.1499H45.5V17.4499H33.3588L28.7692 22.1214C28.6628 22.2256 28.5372 22.3082 28.3993 22.3646C28.2646 22.4196 28.1207 22.4485 27.9753 22.4499C27.8239 22.4428 27.6754 22.4058 27.5382 22.341C27.396 22.2739 27.2686 22.1777 27.1648 22.0596L19.2306 12.992L14.9799 17.1109L14.9743 17.1164C14.8669 17.223 14.7394 17.3073 14.5993 17.3646C14.4592 17.4218 14.3091 17.4508 14.1578 17.4499H2.8V30.1499ZM32.8922 15.1499H45.5V6.2999C45.5 5.27882 45.0944 4.29956 44.3724 3.57754C43.6503 2.85553 42.6711 2.4499 41.65 2.4499H6.65C5.62892 2.4499 4.64965 2.85553 3.92764 3.57754C3.20563 4.29956 2.8 5.27882 2.8 6.2999V15.1499H13.6748L18.3398 10.5947L18.3605 10.5726C18.4681 10.4577 18.5981 10.3661 18.7425 10.3034C18.8869 10.2408 19.0426 10.2085 19.2 10.2085C19.3574 10.2085 19.5131 10.2408 19.6575 10.3034C19.7963 10.3636 19.9218 10.4506 20.0269 10.5593L27.9631 19.6292L32.0757 15.4834L32.0788 15.4803C32.1856 15.3752 32.3119 15.2919 32.4507 15.2352C32.5908 15.178 32.7409 15.149 32.8922 15.1499ZM6.65 0.149902H41.65C43.2811 0.149902 44.8454 0.797849 45.9987 1.9512C47.1521 3.10455 47.8 4.66882 47.8 6.2999V41.2999C47.8 42.931 47.1521 44.4953 45.9987 45.6486C44.8454 46.802 43.2811 47.4499 41.65 47.4499H6.65C5.01892 47.4499 3.45464 46.802 2.30129 45.6486C1.14795 44.4953 0.5 42.931 0.5 41.2999V6.2999C0.5 4.66882 1.14795 3.10455 2.30129 1.9512C3.45464 0.797849 5.01892 0.149902 6.65 0.149902Z" fill="#D23200"/>
</svg>
