<svg width="48" height="48" viewBox="0 0 48 48" fill="none" xmlns="http://www.w3.org/2000/svg">
<path fill-rule="evenodd" clip-rule="evenodd" d="M32.3209 17.6913C32.2281 17.6913 32.1391 17.7281 32.0735 17.7938L28.0137 21.8536C27.9087 21.9585 27.8814 22.1182 27.9454 22.2521C28.2044 22.7934 28.3496 23.3998 28.3496 24.0411C28.3496 26.333 26.4916 28.191 24.1997 28.191C21.9077 28.191 20.0497 26.333 20.0497 24.0411C20.0497 21.7491 21.9077 19.8911 24.1997 19.8911C24.841 19.8911 25.4475 20.0363 25.9888 20.2954C26.1227 20.3595 26.2824 20.3321 26.3874 20.2272L30.448 16.1666C30.5136 16.1009 30.5505 16.0119 30.5505 15.9191L30.5496 7.54125C30.5496 7.2362 30.6708 6.94364 30.8865 6.72794L36.8868 0.727948C37.2157 0.399067 37.7103 0.30069 38.1401 0.478691C38.5698 0.656691 38.8499 1.07602 38.8499 1.54114V9.04115C38.8499 9.23445 39.0066 9.39115 39.1999 9.39115L46.7005 9.3913C47.1656 9.39131 47.5849 9.6715 47.7629 10.1012C47.9409 10.5309 47.8425 11.0256 47.5136 11.3545L41.5137 17.3544C41.298 17.5701 41.0055 17.6913 40.7005 17.6913H32.3209ZM43.3267 12.2887C43.4268 12.1886 43.4568 12.0381 43.4026 11.9073C43.3484 11.7765 43.2208 11.6912 43.0792 11.6912L37.6999 11.6911C37.0648 11.6911 36.55 11.1762 36.55 10.5411V5.16229C36.55 5.02073 36.4647 4.89311 36.3339 4.83894C36.2031 4.78476 36.0526 4.8147 35.9525 4.9148L32.9522 7.91492C32.8866 7.98056 32.8497 8.0696 32.8497 8.16245L32.8504 15.0413C32.8504 15.2346 33.0071 15.3913 33.2004 15.3913H40.0792C40.172 15.3913 40.261 15.3544 40.3267 15.2888L43.3267 12.2887ZM47.8495 24.0412C47.8495 21.6777 47.5029 19.3956 46.8579 17.2429L44.9798 19.121C45.3524 20.7009 45.5495 22.3483 45.5495 24.0412C45.5495 35.8325 35.9909 45.3911 24.1997 45.3911C12.4085 45.3911 2.84979 35.8325 2.84979 24.0412C2.84979 12.25 12.4085 2.69136 24.1997 2.69136C25.8929 2.69136 27.5406 2.88855 29.1207 3.26135L30.9989 1.38324C28.8459 0.738094 26.5636 0.391378 24.1997 0.391378C11.1382 0.391378 0.549805 10.9798 0.549805 24.0412C0.549805 37.1027 11.1382 47.6911 24.1997 47.6911C37.2611 47.6911 47.8495 37.1027 47.8495 24.0412ZM24.1997 9.39105C25.1047 9.39105 25.9902 9.47307 26.8494 9.63L26.8496 11.9761C25.9957 11.7894 25.109 11.691 24.1997 11.691C17.379 11.691 11.8497 17.2203 11.8497 24.041C11.8497 30.8616 17.379 36.3909 24.1997 36.3909C31.0203 36.3909 36.5496 30.8616 36.5496 24.041C36.5496 23.132 36.4513 22.2455 36.2647 21.3918H38.6107C38.7676 22.2508 38.8496 23.1362 38.8496 24.041C38.8496 32.1319 32.2906 38.6909 24.1997 38.6909C16.1087 38.6909 9.54975 32.1319 9.54975 24.041C9.54975 15.95 16.1087 9.39105 24.1997 9.39105Z" fill="#D23200"/>
</svg>
