<svg width="48" height="48" viewBox="0 0 48 48" fill="none" xmlns="http://www.w3.org/2000/svg">
<path fill-rule="evenodd" clip-rule="evenodd" d="M23.3802 11.8V24.2H30.6373C31.3632 24.2 31.9516 24.7884 31.9516 25.5142C31.9516 26.2401 31.3632 26.8285 30.6373 26.8285H22.0659C21.34 26.8285 20.7516 26.2401 20.7516 25.5142V11.8C20.7516 11.0741 21.34 10.4857 22.0659 10.4857C22.7917 10.4857 23.3802 11.0741 23.3802 11.8ZM47.3802 23.8C47.3802 36.8339 36.8141 47.4 23.7802 47.4C10.7463 47.4 0.180176 36.8339 0.180176 23.8C0.180176 10.766 10.7463 0.199951 23.7802 0.199951C36.8141 0.199951 47.3802 10.766 47.3802 23.8ZM2.80875 23.8C2.80875 35.3822 12.198 44.7714 23.7802 44.7714C35.3624 44.7714 44.7516 35.3822 44.7516 23.8C44.7516 12.2178 35.3624 2.82852 23.7802 2.82852C12.198 2.82852 2.80875 12.2178 2.80875 23.8Z" fill="white"/>
</svg>
