<svg width="38" height="48" viewBox="0 0 38 48" fill="none" xmlns="http://www.w3.org/2000/svg">
<path fill-rule="evenodd" clip-rule="evenodd" d="M19.0296 0.460205L19.0293 0.460224C18.4443 0.539733 17.9932 1.0423 17.9932 1.64917L17.9906 4.04663L8.9922 4.04793C6.34111 4.04793 4.19195 6.19693 4.19195 8.84777V19.6585C4.19195 22.3093 6.34103 24.4583 8.99212 24.4583H29.3927C32.0438 24.4583 34.1929 22.3093 34.1929 19.6585V8.84777C34.1929 6.19693 32.0438 4.04793 29.3927 4.04793L20.3908 4.04663L20.3933 1.669L20.3797 1.46752C20.2925 0.891239 19.794 0.449219 19.1932 0.449219L19.0296 0.460205ZM33.0002 29.247C35.6513 29.247 37.8003 31.396 37.8003 34.0469V36.219C37.8003 38.6687 36.7308 40.9964 34.872 42.5922C31.2623 45.691 26.0462 47.2492 19.1924 47.2492C12.3398 47.2492 7.12759 45.6915 3.52425 42.5937C1.66807 40.998 0.600342 38.6721 0.600342 36.2244V34.0469C0.600342 31.396 2.74942 29.247 5.40051 29.247H33.0002ZM33.0002 31.6469H5.40051C4.07503 31.6469 3.00045 32.7214 3.00045 34.0469V36.2244C3.00045 37.9727 3.76313 39.6341 5.08897 40.7739C8.26055 43.5005 12.9764 44.8493 19.1924 44.8493C25.4105 44.8493 30.1304 43.4996 33.3085 40.7713C34.6363 39.6315 35.4002 37.9688 35.4002 36.219V34.0469C35.4002 32.7214 34.3257 31.6469 33.0002 31.6469ZM29.3927 6.44782H8.99212C7.66664 6.44782 6.59206 7.52228 6.59206 8.84777V19.6585C6.59206 20.984 7.66664 22.0584 8.99212 22.0584H29.3927C30.7182 22.0584 31.7928 20.984 31.7928 19.6585V8.84777C31.7928 7.52228 30.7182 6.44782 29.3927 6.44782ZM13.7906 11.2477C15.1152 11.2477 16.1889 12.3215 16.1889 13.6459C16.1889 14.9704 15.1152 16.0441 13.7906 16.0441C12.4659 16.0441 11.3922 14.9704 11.3922 13.6459C11.3922 12.3215 12.4659 11.2477 13.7906 11.2477ZM24.5735 11.2477C25.8981 11.2477 26.9718 12.3215 26.9718 13.6459C26.9718 14.9704 25.8981 16.0441 24.5735 16.0441C23.2488 16.0441 22.1751 14.9704 22.1751 13.6459C22.1751 12.3215 23.2488 11.2477 24.5735 11.2477Z" fill="#212121"/>
</svg>
