<?xml version="1.0" encoding="utf-8"?>
<!-- Generator: Adobe Illustrator 25.3.1, SVG Export Plug-In . SVG Version: 6.00 Build 0)  -->
<svg version="1.1" id="Layer_1" xmlns="http://www.w3.org/2000/svg" xmlns:xlink="http://www.w3.org/1999/xlink" x="0px" y="0px"
	 viewBox="0 0 51 47" style="enable-background:new 0 0 51 47;" xml:space="preserve">
<style type="text/css">
	.st0{fill:#FFFFFF;}
</style>
<path class="st0" d="M48,29.1c0-0.1,0-0.2-0.1-0.2l-13-22c-0.3-0.5-1-0.7-1.6-0.4c-0.5,0.3-0.7,1-0.4,1.6l10.2,17.2
	c-1.3-0.5-2.7-0.8-4.2-0.8c-1.3,0-2.5,0.2-3.6,0.6l-4.4-5.9c-0.4-0.5-1.1-0.6-1.6-0.2c-0.5,0.4-0.6,1.1-0.2,1.6l4.1,5.5
	c-1.4,0.8-2.6,2-3.5,3.3L2.9,5.4C2.4,5,1.7,5,1.3,5.5C0.9,6,0.9,6.7,1.4,7.1l27.2,24.4c-0.5,1.3-0.8,2.7-0.8,4.1
	c0,1.3,0.3,2.6,0.7,3.8L4.7,24.1c-0.5-0.3-1.2-0.2-1.6,0.3C2.7,25,2.9,25.7,3.4,26l30.1,19.5c0.1,0.1,0.3,0.1,0.5,0.2
	c1.5,0.7,3.2,1.2,5,1.2c6.2,0,11.2-5,11.2-11.2C50.2,33.2,49.3,30.9,48,29.1z M39,44.6c-4.9,0-8.9-4-8.9-8.9c0-0.9,0.1-1.7,0.4-2.5
	l6.7,6c0.2,0.2,0.5,0.3,0.8,0.3c0.3,0,0.6-0.1,0.9-0.4c0.4-0.5,0.4-1.2-0.1-1.6L31.4,31c1.6-2.5,4.4-4.2,7.5-4.2
	c4.9,0,8.9,4,8.9,8.9C47.8,40.6,43.9,44.6,39,44.6z"/>
</svg>
