<svg width="46" height="48" viewBox="0 0 46 48" fill="none" xmlns="http://www.w3.org/2000/svg">
<path fill-rule="evenodd" clip-rule="evenodd" d="M0.0234375 27.0133C0.0234375 26.5633 0.202597 26.1321 0.520856 25.8138L11.7949 14.539L0.520469 25.8134C0.20221 26.1317 0.0234375 26.5633 0.0234375 27.0133ZM0.697246 25.9902L12.0767 14.6108L12.0348 14.4684C11.7427 13.4758 11.5862 12.4259 11.5862 11.3411C11.5862 5.2313 16.5392 0.27832 22.649 0.27832C22.7136 0.27832 22.7781 0.278874 22.8425 0.279977C21.8338 1.06576 20.923 1.97117 20.1313 2.97491C16.5349 4.05574 13.9144 7.39208 13.9144 11.3411C13.9144 12.4561 14.1228 13.5196 14.5016 14.4968L14.7758 15.2042L2.60164 27.3784V34.2167H8.75803V30.0072C8.75803 29.2081 9.40584 28.5603 10.2049 28.5603H15.8285V24.1852C15.8285 23.8014 15.981 23.4334 16.2523 23.162L18.8204 20.5939C19.2146 21.2828 19.6591 21.9391 20.149 22.5579L18.1567 24.5502V29.4416C18.1567 30.2407 17.5089 30.8885 16.7098 30.8885H11.0862V35.098C11.0862 35.8971 10.4384 36.5449 9.63931 36.5449H1.72036C0.921245 36.5449 0.273438 35.8971 0.273438 35.098V27.0133C0.273438 26.6296 0.425876 26.2616 0.697246 25.9902ZM39.4791 23.131L39.3682 23.2053V29.2422L41.6555 31.5295C42.2205 32.0945 42.2205 33.0107 41.6555 33.5757L38.4363 36.7949L41.632 39.9906C42.2418 40.6004 42.1862 41.6049 41.5128 42.1436L34.8657 47.4613C34.3373 47.884 33.5864 47.884 33.0579 47.4613L26.2703 42.0311C25.927 41.7565 25.7272 41.3408 25.7272 40.9013V23.2053L25.6163 23.131C22.2744 20.8941 20.0708 17.0827 20.0708 12.7552C20.0708 5.86441 25.6569 0.27832 32.5477 0.27832C39.4385 0.27832 45.0246 5.86441 45.0246 12.7552C45.0246 17.0827 42.8211 20.8941 39.4791 23.131ZM28.0554 22.5546V40.4777L33.9618 45.2028L39.2895 40.9407L36.1669 37.818C35.6018 37.253 35.6018 36.3368 36.1668 35.7718L39.386 32.5526L37.4638 30.6304C37.1924 30.359 37.04 29.991 37.04 29.6072V22.5546C37.04 22.139 37.2615 21.755 37.6212 21.5469C40.6578 19.7904 42.6964 16.5101 42.6964 12.7552C42.6964 7.15024 38.1527 2.60652 32.5477 2.60652C26.9427 2.60652 22.399 7.15024 22.399 12.7552C22.399 16.5101 24.4377 19.7904 27.4742 21.5469C27.8339 21.755 28.0554 22.139 28.0554 22.5546ZM34.4189 9.92701C34.4189 10.9604 33.5811 11.7982 32.5477 11.7982C31.5143 11.7982 30.6766 10.9604 30.6766 9.92701C30.6766 8.89361 31.5143 8.05586 32.5477 8.05586C33.5811 8.05586 34.4189 8.89361 34.4189 9.92701Z" fill="#D23200"/>
</svg>
