<svg width="46" height="48" viewBox="0 0 46 48" fill="none" xmlns="http://www.w3.org/2000/svg">
<path d="M23.1497 15.3282C18.3497 15.3282 14.4497 19.2282 14.4497 24.0282C14.4497 28.8282 18.3497 32.7282 23.1497 32.7282C25.6497 32.7282 28.0397 31.6482 29.6897 29.7582C31.0797 28.1682 31.8497 26.1382 31.8497 24.0282C31.8497 23.1582 31.7197 22.2982 31.4697 21.4682C30.3397 17.7982 26.9997 15.3282 23.1497 15.3282ZM23.1497 30.3282C19.6797 30.3282 16.8497 27.4982 16.8497 24.0282C16.8497 20.5582 19.6797 17.7282 23.1497 17.7282C26.6197 17.7282 29.4497 20.5582 29.4497 24.0282C29.4497 27.4982 26.6197 30.3282 23.1497 30.3282Z" fill="#D23200"/>
<path d="M45.2197 29.2582L42.1697 27.0082C41.2197 26.3082 40.6497 25.1982 40.6497 24.0282C40.6497 22.8582 41.2197 21.7482 42.1697 21.0482L45.2197 18.7982C45.7497 18.4082 45.9697 17.7282 45.7797 17.0982C44.7197 13.6782 42.8697 10.4882 40.4297 7.87824C39.9797 7.39824 39.2797 7.25824 38.6797 7.51824L35.2397 9.02824C34.7697 9.23824 34.2797 9.33824 33.7697 9.33824C31.8797 9.33824 30.2997 7.91824 30.0997 6.03824L29.6797 2.27824C29.6097 1.61824 29.1297 1.08824 28.4797 0.938237C26.7497 0.548237 24.9597 0.338237 23.1797 0.318237C21.3797 0.338237 19.5797 0.548237 17.8397 0.938237C17.1997 1.07824 16.7197 1.61824 16.6397 2.27824L16.2197 6.03824C16.0897 7.19824 15.4097 8.24824 14.3997 8.83824C13.3797 9.42824 12.1297 9.50824 11.0597 9.02824L7.60972 7.51824C7.00972 7.25824 6.30972 7.39824 5.85972 7.87824C3.41972 10.4882 1.56972 13.6782 0.509719 17.0982C0.319719 17.7282 0.539719 18.4082 1.06972 18.7982L4.11972 21.0482C5.05972 21.7382 5.62972 22.8582 5.62972 24.0282C5.62972 25.1982 5.06972 26.3182 4.11972 27.0082L1.06972 29.2582C0.539719 29.6482 0.319719 30.3282 0.509719 30.9582C1.56972 34.3782 3.41972 37.5682 5.85972 40.1882C6.30972 40.6682 7.00972 40.8082 7.60972 40.5482L11.0697 39.0282C11.5397 38.8182 12.0397 38.7182 12.5497 38.7182C13.1897 38.7182 13.8297 38.8882 14.3997 39.2082C15.4097 39.7882 16.0897 40.8382 16.2297 41.9982L16.6497 45.7482C16.7197 46.3982 17.1897 46.9282 17.8297 47.0782C21.3297 47.9082 25.0197 47.9082 28.5197 47.0782C29.1497 46.9282 29.6197 46.3882 29.6997 45.7482L30.1197 41.9882C30.2497 40.7982 30.9097 39.7782 31.9197 39.1882C32.9397 38.5982 34.1897 38.5282 35.2697 38.9982L38.7297 40.5182C39.3197 40.7782 40.0297 40.6382 40.4697 40.1582C42.9097 37.5482 44.7597 34.3582 45.8197 30.9382C45.9797 30.3382 45.7497 29.6482 45.2197 29.2582ZM43.2297 31.0382C42.3397 33.5782 40.9897 35.8982 39.2297 37.9282L39.0897 38.0982L36.1997 36.8282C34.4197 36.0482 32.3597 36.1582 30.6797 37.1382C29.3897 37.8882 28.4297 39.0882 27.9597 40.5182C27.8297 40.9182 27.7397 41.3282 27.6997 41.7482L27.3497 44.8982L27.1297 44.9382C25.8097 45.1982 24.4797 45.3282 23.1497 45.3282C21.8197 45.3282 20.4897 45.1982 19.1697 44.9382L18.9497 44.8982L18.5997 41.7482C18.3797 39.8282 17.2597 38.1082 15.5897 37.1482C13.9197 36.1882 11.8697 36.0682 10.1097 36.8382L7.21972 38.1082L7.07972 37.9382C5.31972 35.8982 3.97972 33.5782 3.07972 31.0382L2.99972 30.8282L5.55972 28.9382C7.10972 27.7882 8.03972 25.9582 8.03972 24.0282C8.03972 22.0982 7.10972 20.2582 5.55972 19.1182L2.99972 17.2282L3.06972 17.0182C3.95972 14.4782 5.30972 12.1582 7.06972 10.1282L7.21972 9.95824L10.0897 11.2282C11.8697 12.0082 13.9297 11.8882 15.5997 10.9082C17.2597 9.93824 18.3897 8.21824 18.5997 6.30824L18.9497 3.16824L19.1697 3.12824C20.4797 2.88824 21.8197 2.75824 23.1697 2.73824C24.4997 2.75824 25.8297 2.88824 27.1297 3.12824L27.3497 3.16824L27.6997 6.30824C28.0397 9.40824 30.6497 11.7482 33.7597 11.7482C33.7597 11.7482 33.7597 11.7482 33.7697 11.7482C34.6197 11.7482 35.4397 11.5782 36.2097 11.2282L39.0797 9.96824L39.2197 10.1382C40.9797 12.1682 42.3197 14.4882 43.2197 17.0282L43.2897 17.2382L40.7397 19.1282C39.1797 20.2782 38.2397 22.1182 38.2397 24.0382C38.2397 25.9682 39.1697 27.7982 40.7397 28.9482L43.2997 30.8382L43.2297 31.0382Z" fill="#D23200"/>
</svg>
