<svg width="34" height="48" viewBox="0 0 34 48" fill="none" xmlns="http://www.w3.org/2000/svg">
<path fill-rule="evenodd" clip-rule="evenodd" d="M28.3419 24.6287C32.0477 25.6187 34.3024 29.3266 33.5349 33.0356L33.4365 33.4497L30.9235 42.8558C30.4594 44.5931 29.0672 45.9147 27.3318 46.3012L26.9576 46.3692L21.1657 47.2003C19.1975 47.4827 17.2735 46.5224 16.3075 44.814L16.1277 44.4634L16.0628 44.3238C15.4587 43.0251 14.5519 41.8938 13.4222 41.023L13.4141 41.0167L12.9332 40.6717L8.39648 37.6473L8.14702 37.4921L7.88826 37.353L2.20963 34.5281C1.81055 34.3296 1.55443 33.9262 1.54455 33.4805C1.49034 31.0356 2.55229 29.2067 4.61801 28.1739C6.09951 27.4331 8.15605 27.4341 10.9595 28.252L12.3536 28.6796V17.8669C12.3536 16.2355 12.8261 14.8804 13.6399 13.9427C14.4456 13.0143 15.6255 12.4474 17.1527 12.4474C18.6175 12.4474 19.7612 12.9689 20.5618 13.8273C21.368 14.6917 21.8659 15.9419 21.9418 17.4582L21.9519 17.8742V23.4441L27.7699 24.5006C27.9622 24.5355 28.1531 24.5782 28.3419 24.6287ZM14.7633 17.4917L14.7628 17.5005L14.753 17.8586V30.4506C14.753 31.3048 13.8857 31.8854 13.096 31.5598C11.3191 30.8272 9.81006 30.365 8.59429 30.1556C7.40634 29.951 6.39402 29.9685 5.69108 30.32C4.98088 30.6751 4.45851 31.1675 4.1776 31.8828L4.1707 31.9004L3.91461 32.6963L8.94004 35.1963L9.34894 35.4161L9.74325 35.6613L14.2556 38.6696C15.8091 39.7052 17.0794 41.1073 17.9568 42.748L18.2419 43.3192L18.3082 43.4619C18.7051 44.3152 19.5571 44.8474 20.4776 44.8496L20.4994 44.8496L20.8034 44.8282L26.6278 43.9925C27.4604 43.873 28.16 43.329 28.4882 42.5728L28.4971 42.5523L28.5996 42.258L31.1205 32.8224C31.8047 30.2616 30.2834 27.6309 27.7226 26.9467L27.527 26.8987L20.5379 25.626C20.0311 25.534 19.6468 25.1314 19.5676 24.6362L19.5525 24.4243V17.8669C19.5525 16.9839 19.3928 16.2238 18.9768 15.6742C18.5358 15.0916 17.8868 14.8469 17.1527 14.8469C16.4748 14.8469 15.8635 15.0549 15.4224 15.5591C14.999 16.043 14.8075 16.7159 14.7633 17.4917ZM25.5517 17.8669L25.5419 17.4015L25.546 17.2565V17.2481C25.546 15.4908 25.0055 13.858 24.0816 12.5091L24.0803 12.5073L23.8647 12.1873L23.8606 12.1815C22.4066 10.1301 20.0835 8.84777 17.1527 8.84777C14.1398 8.84777 11.7707 10.203 10.327 12.3523C9.33775 13.73 8.75378 15.4217 8.75378 17.2481L8.75941 17.5154L8.75391 17.8573V24.1129C8.34424 24.051 7.96793 23.8495 7.68912 23.5417C7.29037 23.1016 6.94964 22.383 6.71264 21.3179C6.47714 20.2595 6.35445 18.9068 6.35445 17.2481C6.35445 11.2859 11.1878 6.4526 17.1499 6.4526C23.1121 6.4526 27.9454 11.2859 27.9454 17.2481C27.9454 18.4814 27.7389 19.6653 27.3588 20.7678L25.5516 20.4393L25.5517 17.8669ZM17.1499 0.449219C26.4277 0.449219 33.9488 7.97033 33.9488 17.2481C33.9488 19.2471 33.5999 21.1635 32.96 22.9404C32.3137 22.4549 31.6058 22.0382 30.8447 21.7033C31.3029 20.3004 31.5494 18.8024 31.5494 17.2481C31.5494 9.29551 25.1025 2.84868 17.1499 2.84868C9.19737 2.84868 2.75053 9.29551 2.75053 17.2481C2.75053 19.8276 3.42932 22.2501 4.61816 24.345C4.06077 24.4935 3.52428 24.6962 3.0082 24.9543C2.79783 25.0594 2.59333 25.1705 2.39482 25.2873C1.09275 22.9021 0.351074 20.1625 0.351074 17.2481C0.351074 7.97033 7.87218 0.449219 17.1499 0.449219Z" fill="white"/>
</svg>
