<svg width="48" height="48" viewBox="0 0 48 48" fill="none" xmlns="http://www.w3.org/2000/svg">
<path fill-rule="evenodd" clip-rule="evenodd" d="M12.9292 2.61262C14.7926 1.16332 17.2506 0.35 19.7 0.35C21.0585 0.35 22.1267 0.810973 22.9327 1.52746C23.2492 1.80881 23.5186 2.12322 23.7482 2.45397C23.851 2.602 24.0198 2.69028 24.2 2.69028C24.3802 2.69028 24.549 2.602 24.6518 2.45397C24.8814 2.12321 25.1508 1.80881 25.4673 1.52746C26.2733 0.810973 27.3414 0.35 28.7 0.35C31.1494 0.35 33.6073 1.16332 35.4707 2.61262C36.9614 3.77203 38.0905 5.35951 38.4911 7.25925C38.5414 7.49805 38.7431 7.67511 38.9864 7.69411C39.8424 7.76097 40.638 8.11705 41.3217 8.67146C42.3663 9.51843 43.1513 10.814 43.6571 12.2305C44.4437 14.4329 44.6506 17.2263 43.8446 19.5794C43.7533 19.8458 43.878 20.1382 44.1336 20.2566C44.3265 20.3461 44.5141 20.451 44.6957 20.5721C45.4251 21.0583 45.9933 21.7623 46.4247 22.6251C47.274 24.3237 47.65 26.7516 47.65 29.8C47.65 33.0686 46.4103 35.2102 44.8807 36.5213C43.9158 37.3484 42.8458 37.8351 41.9375 38.0719C41.7298 38.126 41.5727 38.296 41.5348 38.5072C41.2515 40.0888 40.452 41.9432 39.1918 43.5185C37.5559 45.5634 35.0528 47.25 31.7 47.25C29.0876 47.25 26.9809 45.8035 25.5753 44.331C25.2272 43.9663 24.9145 43.5925 24.6402 43.2262C24.5363 43.0875 24.3732 43.0059 24.2 43.0059C24.0268 43.0059 23.8636 43.0875 23.7598 43.2262C23.4855 43.5925 23.1728 43.9663 22.8247 44.331C21.4191 45.8035 19.3124 47.25 16.7 47.25C13.3472 47.25 10.8441 45.5634 9.20817 43.5185C7.94794 41.9432 7.14846 40.0888 6.86517 38.5072C6.82734 38.296 6.67015 38.126 6.46252 38.0719C5.55414 37.8351 4.48423 37.3484 3.51924 36.5213C1.98965 35.2102 0.749994 33.0686 0.749994 29.8C0.749994 26.7516 1.126 24.3237 1.97529 22.6251C2.40669 21.7624 2.9749 21.0583 3.70428 20.5721C3.88592 20.451 4.07351 20.3461 4.26642 20.2566C4.52194 20.1382 4.6467 19.8458 4.55543 19.5794C3.74938 17.2263 3.95627 14.4329 4.74284 12.2305C5.24873 10.814 6.03364 9.51843 7.07825 8.67146C7.76201 8.11705 8.5576 7.76097 9.41359 7.69411C9.6569 7.67511 9.85858 7.49805 9.90893 7.25925C10.3095 5.35951 11.4386 3.77203 12.9292 2.61262ZM19.7 2.5C17.7018 2.5 15.7145 3.17006 14.2492 4.30972C12.7966 5.43954 11.9 6.98745 11.9 8.8C11.9 9.18573 11.7146 9.54795 11.4016 9.77349C11.0887 9.99903 10.6865 10.0604 10.3205 9.93842C9.99543 9.83006 9.67341 9.80235 9.35003 9.87223C9.02904 9.9416 8.72673 10.1028 8.43232 10.3415C7.78935 10.8628 7.18949 11.7723 6.76758 12.9536C5.90957 15.356 5.9772 18.3025 7.19845 20.1344C7.33229 20.3351 7.39997 20.5671 7.4 20.7999C7.40002 20.9656 7.53433 21.0999 7.7 21.0999H9.94999C13.5122 21.0999 16.4 23.9877 16.4 27.5499V28.5561C16.4 28.6832 16.4801 28.7965 16.6 28.8389C18.2317 29.4156 19.4 30.9718 19.4 32.8C19.4 35.1196 17.5196 37 15.2 37C12.8804 37 11 35.1196 11 32.8C11 30.9718 12.1683 29.4156 13.8 28.8389C13.9198 28.7965 14 28.6832 14 28.5561V27.5499C14 25.3132 12.1867 23.4999 9.94999 23.4999H4.69999C4.55153 23.4999 4.41001 23.4731 4.27957 23.4243C4.13605 23.3706 3.97513 23.4337 3.90636 23.5706L3.89831 23.5867C3.27366 24.8359 2.89999 26.8614 2.89999 29.8C2.89999 32.4608 3.88026 33.999 4.91844 34.8889C6.01396 35.8279 7.23712 36.1 7.69999 36.1C8.36274 36.1 8.89999 36.6373 8.89999 37.3C8.89999 38.484 9.52795 40.4765 10.887 42.1754C12.2159 43.8364 14.1464 45.1 16.7 45.1C18.4915 45.1 20.0739 44.099 21.2695 42.8464C21.8575 42.2304 22.3162 41.589 22.6215 41.0597C22.7744 40.7947 22.8805 40.5723 22.9446 40.4082C22.9636 40.3596 22.9768 40.3216 22.9858 40.2933C22.9952 40.2638 23 40.2331 23 40.2021V16.3C23 16.1343 22.8657 16 22.7 16H19.4439C19.3168 16 19.2035 16.0801 19.1611 16.2C18.5844 17.8317 17.0282 19 15.2 19C12.8804 19 11 17.1196 11 14.8C11 12.4804 12.8804 10.6 15.2 10.6C17.0282 10.6 18.5844 11.7683 19.1611 13.4C19.2035 13.5199 19.3168 13.6 19.4439 13.6H22.7C22.8657 13.6 23 13.4657 23 13.3L23.0001 7.30188L22.9993 7.26416L22.9993 7.26261C22.9984 7.22928 22.9967 7.17625 22.9929 7.10638C22.9854 6.96628 22.9701 6.76047 22.9389 6.51134C22.8759 6.00686 22.7517 5.35555 22.5139 4.72135C22.2742 4.08213 21.9431 3.52438 21.5043 3.13439C21.0903 2.76639 20.53 2.5 19.7 2.5ZM28.7 2.5C27.87 2.5 27.3097 2.76639 26.8957 3.13439C26.4569 3.52438 26.1258 4.08213 25.8861 4.72135C25.6483 5.35555 25.5241 6.00686 25.461 6.51134C25.4299 6.76047 25.4146 6.96628 25.4071 7.10639C25.4033 7.17625 25.4016 7.22928 25.4007 7.26261L25.4007 7.26446L25.4 7.29792V34.3C25.4 34.4657 25.5343 34.6 25.7 34.6H27.95C30.1867 34.6 32 32.7868 32 30.55V25.0439C32 24.9168 31.9198 24.8035 31.8 24.7611C30.1683 24.1844 29 22.6282 29 20.8C29 18.4804 30.8804 16.6 33.2 16.6C35.5196 16.6 37.4 18.4804 37.4 20.8C37.4 22.6282 36.2317 24.1844 34.6 24.7611C34.4801 24.8035 34.4 24.9168 34.4 25.0439V30.55C34.4 34.1122 31.5122 37 27.95 37H25.7C25.5343 37 25.4 37.1343 25.4 37.3V40.2021C25.4 40.2331 25.4048 40.2638 25.4142 40.2933C25.4232 40.3216 25.4364 40.3596 25.4554 40.4082C25.5195 40.5723 25.6256 40.7947 25.7785 41.0597C26.0838 41.589 26.5425 42.2304 27.1305 42.8464C28.3261 44.099 29.9085 45.1 31.7 45.1C34.2536 45.1 36.1841 43.8364 37.513 42.1754C38.872 40.4765 39.5 38.484 39.5 37.3C39.5 36.6373 40.0373 36.1 40.7 36.1C41.1629 36.1 42.386 35.8279 43.4815 34.8889C44.5197 33.999 45.5 32.4608 45.5 29.8C45.5 26.8614 45.1263 24.8359 44.5017 23.5867C44.1978 22.9789 43.8546 22.5953 43.5031 22.361C43.1591 22.1316 42.7402 22 42.2 22C41.7574 22 41.3508 21.7564 41.142 21.3662C40.9332 20.976 40.956 20.5026 41.2015 20.1344C42.4228 18.3025 42.4904 15.356 41.6324 12.9536C41.2105 11.7723 40.6106 10.8628 39.9677 10.3415C39.6733 10.1028 39.3709 9.9416 39.05 9.87223C38.7266 9.80235 38.4046 9.83006 38.0795 9.93842C37.7135 10.0604 37.3113 9.99903 36.9983 9.77349C36.6854 9.54795 36.5 9.18573 36.5 8.8C36.5 6.98745 35.6034 5.43954 34.1508 4.30972C32.6855 3.17006 30.6982 2.5 28.7 2.5ZM15.2 12.75C14.0678 12.75 13.15 13.6678 13.15 14.8C13.15 15.9322 14.0678 16.85 15.2 16.85C16.3322 16.85 17.25 15.9322 17.25 14.8C17.25 13.6678 16.3322 12.75 15.2 12.75ZM33.2 18.75C32.0678 18.75 31.15 19.6678 31.15 20.8C31.15 21.9322 32.0678 22.85 33.2 22.85C34.3322 22.85 35.25 21.9322 35.25 20.8C35.25 19.6678 34.3322 18.75 33.2 18.75ZM15.2 30.75C14.0678 30.75 13.15 31.6678 13.15 32.8C13.15 33.9322 14.0678 34.85 15.2 34.85C16.3322 34.85 17.25 33.9322 17.25 32.8C17.25 31.6678 16.3322 30.75 15.2 30.75Z" fill="#212121"/>
</svg>
