<?xml version="1.0" encoding="utf-8"?>
<!-- Generator: Adobe Illustrator 25.3.1, SVG Export Plug-In . SVG Version: 6.00 Build 0)  -->
<svg version="1.1" id="Layer_1" xmlns="http://www.w3.org/2000/svg" xmlns:xlink="http://www.w3.org/1999/xlink" x="0px" y="0px"
	 viewBox="0 0 49 49" style="enable-background:new 0 0 49 49;" xml:space="preserve">
<style type="text/css">
	.st0{fill:#212121;}
</style>
<g>
	<path class="st0" d="M29.3,15.7c-0.4-0.4-1.2-0.4-1.6,0L24,19.4l-3.7-3.7c-0.4-0.4-1.2-0.4-1.6,0c-0.4,0.4-0.4,1.2,0,1.6l3.7,3.7
		l-3.7,3.7c-0.2,0.2-0.3,0.5-0.3,0.8c0,0.3,0.1,0.6,0.3,0.8c0.4,0.4,1.2,0.4,1.6,0l3.7-3.7l3.7,3.7c0.4,0.4,1.2,0.4,1.6,0
		c0.2-0.2,0.3-0.5,0.3-0.8c0-0.3-0.1-0.6-0.3-0.8L25.6,21l3.7-3.7c0.2-0.2,0.3-0.5,0.3-0.8C29.6,16.2,29.5,15.9,29.3,15.7L29.3,15.7
		z"/>
	<path class="st0" d="M24.2,0.7c-9.3,0-16.8,7.2-17,16.5c0,0,0,0,0,0l0,0.6l0,0.7c0.2,4.6,2.3,8.9,6.3,12.9l0,0
		c0.3,0.3,0.6,0.8,0.7,1.2L17,44.9c0.6,2,2.5,3.3,4.6,3.3l5.6,0c2.1-0.2,3.8-1.7,4.3-3.7l2.9-12.3l0,0c0.1-0.4,0.3-0.7,0.6-0.9l0,0
		c4.2-4.1,6.3-8.7,6.3-13.6C41.3,8.3,33.6,0.7,24.2,0.7z M29.2,44.3L29.2,44.3c-0.4,1-1.3,1.7-2.4,1.7l-5.5,0l0,0
		c-1.1-0.2-1.9-0.9-2.2-2l-1-4.4h12.2L29.2,44.3z M33.4,29.7L33.1,30c-0.5,0.6-0.9,1.3-1,2.1l-1.2,5.4h-5.5V31
		c0-0.6-0.5-1.1-1.1-1.1c-0.6,0-1.1,0.5-1.1,1.1v6.4h-5.5l-1.4-5.8c-0.2-0.7-0.7-1.4-1.2-1.9c-3.6-3.5-5.4-7.2-5.6-11.2l0,0l0-0.7
		l0-0.6c0.3-8,6.8-14.2,14.8-14.2c8,0,14.5,6.3,14.8,14.2l0,0l0,0.5l0,0.7C38.8,22.4,36.9,26.2,33.4,29.7z"/>
</g>
</svg>
