<svg width="48" height="48" viewBox="0 0 48 48" fill="none" xmlns="http://www.w3.org/2000/svg">
<path fill-rule="evenodd" clip-rule="evenodd" d="M6.29043 34.8639C6.29044 34.8639 6.29045 34.864 6.29045 34.864C6.33261 34.9319 6.37516 34.9995 6.41808 35.0669C6.37515 34.9995 6.3326 34.9318 6.29043 34.8639ZM15.7121 14.2925H31.8481L31.6745 13.6075C31.2201 11.8135 30.6529 10.1809 29.9961 8.75777C28.1729 4.8076 25.8904 2.90682 23.7801 2.90682C21.6697 2.90682 19.3873 4.8076 17.5641 8.75777C16.9073 10.1809 16.34 11.8135 15.8856 13.6075L15.7121 14.2925ZM5.00719 14.2925H13.3303L13.4282 13.8655C13.9449 11.6121 14.6292 9.56007 15.4499 7.78196C15.8896 6.82911 16.3854 5.92308 16.9341 5.0952L17.8786 3.66998L16.2803 4.27722C11.7117 6.01292 7.90255 9.28731 5.48466 13.4671L5.00719 14.2925ZM12.8024 17.2491L12.8924 16.6211H3.99026L3.86064 16.9878C3.08206 19.1906 2.65865 21.5606 2.65865 24.0282C2.65865 26.4959 3.08206 28.8659 3.86064 31.0687L3.99026 31.4354H12.8924L12.8024 30.8074C12.4943 28.6559 12.3301 26.3787 12.3301 24.0282C12.3301 21.6778 12.4943 19.4006 12.8024 17.2491ZM13.4282 34.191L13.3303 33.764H5.00719L5.48466 34.5894C7.90255 38.7692 11.7117 42.0436 16.2803 43.7793L17.8786 44.3865L16.9341 42.9613C16.3854 42.1334 15.8896 41.2274 15.4499 40.2745C14.6292 38.4964 13.9449 36.4444 13.4282 34.191ZM31.8481 33.764H15.7121L15.8856 34.449C16.34 36.243 16.9073 37.8756 17.5641 39.2987C19.3873 43.2489 21.6697 45.1497 23.7801 45.1497C25.8904 45.1497 28.1729 43.2489 29.9961 39.2987C30.6529 37.8756 31.2201 36.243 31.6745 34.449L31.8481 33.764ZM15.2534 31.4354H32.3068L32.3791 30.9699C32.7164 28.8015 32.9015 26.4675 32.9015 24.0282C32.9015 21.589 32.7164 19.255 32.3791 17.0866L32.3068 16.6211H15.2534L15.181 17.0866C14.8437 19.255 14.6586 21.589 14.6586 24.0282C14.6586 26.4675 14.8437 28.8015 15.181 30.9699L15.2534 31.4354ZM42.553 33.764H34.2299L34.132 34.191C33.6153 36.4444 32.931 38.4964 32.1103 40.2745C31.6705 41.2274 31.1747 42.1334 30.6261 42.9613L29.6815 44.3865L31.2799 43.7793C35.8484 42.0436 39.6576 38.7692 42.0755 34.5894L42.553 33.764ZM34.6678 31.4354H43.5699L43.6995 31.0687C44.4781 28.8659 44.9015 26.4959 44.9015 24.0282C44.9015 21.5606 44.4781 19.1906 43.6995 16.9878L43.5699 16.6211H34.6678L34.7577 17.2491C35.0659 19.4006 35.2301 21.6778 35.2301 24.0282C35.2301 26.3787 35.0659 28.6559 34.7577 30.8074L34.6678 31.4354ZM31.2799 4.27722L29.6815 3.66998L30.6261 5.0952C31.1747 5.92308 31.6705 6.82911 32.1103 7.78196C32.931 9.56007 33.6153 11.6121 34.132 13.8655L34.2299 14.2925H42.553L42.0755 13.4671C39.6576 9.28731 35.8484 6.01292 31.2799 4.27722ZM47.2301 24.0282C47.2301 36.9793 36.7312 47.4782 23.7801 47.4782C10.829 47.4782 0.330078 36.9793 0.330078 24.0282C0.330078 11.0772 10.829 0.578247 23.7801 0.578247C36.7312 0.578247 47.2301 11.0772 47.2301 24.0282Z" fill="#212121"/>
</svg>
