<svg width="48" height="48" viewBox="0 0 48 48" fill="none" xmlns="http://www.w3.org/2000/svg">
<path fill-rule="evenodd" clip-rule="evenodd" d="M32.5922 21.6283L32.8458 22.6H36.7C37.0183 22.6 37.3235 22.7264 37.5485 22.9514C37.7736 23.1765 37.9 23.4817 37.9 23.8C37.9 24.1182 37.7736 24.4235 37.5485 24.6485C37.3235 24.8735 37.0183 25 36.7 25H32.8458L32.5922 25.9716C32.2016 27.4677 31.4194 28.8327 30.3261 29.926C29.2327 31.0194 27.8677 31.8016 26.3717 32.1921L25.4 32.4458V36.3C25.4 36.6182 25.2736 36.9235 25.0485 37.1485C24.8235 37.3735 24.5183 37.5 24.2 37.5C23.8817 37.5 23.5765 37.3735 23.3515 37.1485C23.1264 36.9235 23 36.6182 23 36.3V32.4458L22.0284 32.1921C20.5323 31.8016 19.1673 31.0194 18.0739 29.926C16.9806 28.8327 16.1984 27.4677 15.8078 25.9716L15.5542 25H11.7C11.3817 25 11.0765 24.8735 10.8515 24.6485C10.6264 24.4235 10.5 24.1182 10.5 23.8C10.5 23.4817 10.6264 23.1765 10.8515 22.9514C11.0765 22.7264 11.3817 22.6 11.7 22.6H15.5542L15.8078 21.6283C16.1984 20.1322 16.9806 18.7673 18.0739 17.6739C19.1673 16.5806 20.5323 15.7984 22.0284 15.4078L23 15.1542V11.3C23 10.9817 23.1264 10.6765 23.3515 10.4514C23.5765 10.2264 23.8817 10.1 24.2 10.1C24.5183 10.1 24.8235 10.2264 25.0485 10.4514C25.2736 10.6765 25.4 10.9817 25.4 11.3V15.1542L26.3717 15.4078C27.8677 15.7984 29.2327 16.5806 30.3261 17.6739C31.4194 18.7673 32.2016 20.1322 32.5922 21.6283ZM14.2 0.0999756C14.5183 0.0999756 14.8235 0.226404 15.0485 0.451447C15.2736 0.676491 15.4 0.981716 15.4 1.29998C15.4 1.61823 15.2736 1.92346 15.0485 2.1485C14.8235 2.37355 14.5183 2.49998 14.2 2.49998H6.7C5.69218 2.49998 4.72563 2.90033 4.013 3.61297C3.30036 4.32561 2.9 5.29215 2.9 6.29998V13.8C2.9 14.1182 2.77357 14.4235 2.54853 14.6485C2.32348 14.8735 2.01826 15 1.7 15C1.38174 15 1.07652 14.8735 0.851472 14.6485C0.626428 14.4235 0.5 14.1182 0.5 13.8V6.29998C0.5 4.65563 1.15321 3.07864 2.31594 1.91591C3.47866 0.753188 5.05566 0.0999756 6.7 0.0999756H14.2ZM6.7 45.1H14.2C14.5183 45.1 14.8235 45.2264 15.0485 45.4514C15.2736 45.6765 15.4 45.9817 15.4 46.3C15.4 46.6182 15.2736 46.9235 15.0485 47.1485C14.8235 47.3735 14.5183 47.5 14.2 47.5H6.7C5.05566 47.5 3.47866 46.8468 2.31594 45.684C1.15321 44.5213 0.5 42.9443 0.5 41.3V33.8C0.5 33.4817 0.626428 33.1765 0.851473 32.9514C1.07652 32.7264 1.38174 32.6 1.7 32.6C2.01826 32.6 2.32348 32.7264 2.54853 32.9514C2.77357 33.1765 2.9 33.4817 2.9 33.8V41.3C2.9 42.3078 3.30036 43.2743 4.01299 43.987C4.72563 44.6996 5.69218 45.1 6.7 45.1ZM20.6999 29.0382C21.7359 29.7305 22.954 30.1 24.2 30.1C25.8709 30.1 27.4733 29.4362 28.6548 28.2547C29.8363 27.0733 30.5 25.4708 30.5 23.8C30.5 22.554 30.1305 21.3359 29.4383 20.2999C28.746 19.2639 27.7621 18.4564 26.6109 17.9795C25.4597 17.5027 24.193 17.3779 22.9709 17.621C21.7488 17.8641 20.6263 18.4641 19.7452 19.3452C18.8642 20.2263 18.2641 21.3488 18.0211 22.5709C17.778 23.793 17.9027 25.0597 18.3796 26.2109C18.8564 27.3621 19.6639 28.346 20.6999 29.0382ZM45.8515 32.9514C46.0765 32.7264 46.3817 32.6 46.7 32.6C47.0183 32.6 47.3235 32.7264 47.5485 32.9514C47.7736 33.1765 47.9 33.4817 47.9 33.8V41.3C47.9 42.9443 47.2468 44.5213 46.0841 45.684C44.9213 46.8468 43.3443 47.5 41.7 47.5H34.2C33.8817 47.5 33.5765 47.3735 33.3515 47.1485C33.1264 46.9235 33 46.6182 33 46.3C33 45.9817 33.1264 45.6765 33.3515 45.4514C33.5765 45.2264 33.8817 45.1 34.2 45.1H41.7C42.7078 45.1 43.6744 44.6996 44.387 43.987C45.0997 43.2743 45.5 42.3078 45.5 41.3V33.8C45.5 33.4817 45.6264 33.1765 45.8515 32.9514ZM34.2 0.0999756H41.7C43.3443 0.0999756 44.9213 0.753188 46.0841 1.91591C47.2468 3.07864 47.9 4.65563 47.9 6.29998V13.8C47.9 14.1182 47.7736 14.4235 47.5485 14.6485C47.3235 14.8735 47.0183 15 46.7 15C46.3817 15 46.0765 14.8735 45.8515 14.6485C45.6264 14.4235 45.5 14.1182 45.5 13.8V6.29998C45.5 5.29215 45.0996 4.32561 44.387 3.61297C43.6744 2.90033 42.7078 2.49998 41.7 2.49998H34.2C33.8817 2.49998 33.5765 2.37355 33.3515 2.1485C33.1264 1.92346 33 1.61823 33 1.29998C33 0.981716 33.1264 0.676491 33.3515 0.451447C33.5765 0.226403 33.8817 0.0999756 34.2 0.0999756Z" fill="#D23200"/>
</svg>
