<?xml version="1.0" encoding="utf-8"?>
<!-- Generator: Adobe Illustrator 25.3.1, SVG Export Plug-In . SVG Version: 6.00 Build 0)  -->
<svg version="1.1" id="Layer_1" xmlns="http://www.w3.org/2000/svg" xmlns:xlink="http://www.w3.org/1999/xlink" x="0px" y="0px"
	 viewBox="0 0 50 45" style="enable-background:new 0 0 50 45;" xml:space="preserve">
<path d="M47,27.1c0-0.1,0-0.2-0.1-0.2l-13-22c-0.3-0.5-1-0.7-1.6-0.4c-0.5,0.3-0.7,1-0.4,1.6l10.2,17.2c-1.3-0.5-2.7-0.8-4.2-0.8
	c-1.3,0-2.5,0.2-3.6,0.6l-4.4-5.9c-0.4-0.5-1.1-0.6-1.6-0.2c-0.5,0.4-0.6,1.1-0.2,1.6l4.1,5.5c-1.4,0.8-2.6,2-3.5,3.3L1.9,3.4
	C1.4,3,0.7,3,0.3,3.5C-0.1,4-0.1,4.7,0.4,5.1l27.2,24.4c-0.5,1.3-0.8,2.7-0.8,4.1c0,1.3,0.3,2.6,0.7,3.8L3.7,22.1
	c-0.5-0.3-1.2-0.2-1.6,0.3C1.7,23,1.9,23.7,2.4,24l30.1,19.5c0.1,0.1,0.3,0.1,0.5,0.2c1.5,0.7,3.2,1.2,5,1.2c6.2,0,11.2-5,11.2-11.2
	C49.2,31.2,48.3,28.9,47,27.1z M38,42.6c-4.9,0-8.9-4-8.9-8.9c0-0.9,0.1-1.7,0.4-2.5l6.7,6c0.2,0.2,0.5,0.3,0.8,0.3
	c0.3,0,0.6-0.1,0.9-0.4c0.4-0.5,0.4-1.2-0.1-1.6L30.4,29c1.6-2.5,4.4-4.2,7.5-4.2c4.9,0,8.9,4,8.9,8.9C46.8,38.6,42.9,42.6,38,42.6z
	"/>
</svg>
