<svg width="35" height="49" viewBox="0 0 35 49" fill="none" xmlns="http://www.w3.org/2000/svg">
<path fill-rule="evenodd" clip-rule="evenodd" d="M20.7122 15.6846C21.1341 15.2628 21.8875 15.2628 22.3094 15.6846L22.3122 15.6874C22.5301 15.8969 22.6408 16.1735 22.6408 16.4832C22.6408 16.7894 22.5224 17.0688 22.3094 17.2818L18.5679 21.0232L22.3094 24.7646C22.5224 24.9777 22.6408 25.257 22.6408 25.5632C22.6408 25.8694 22.5224 26.1488 22.3094 26.3618C21.8875 26.7837 21.1341 26.7837 20.7122 26.3618L16.9708 22.6204L13.2294 26.3618C12.7875 26.8037 12.0741 26.8037 11.6322 26.3618C11.4192 26.1488 11.3008 25.8694 11.3008 25.5632C11.3008 25.257 11.4192 24.9777 11.6322 24.7646L15.3736 21.0232L11.6322 17.2818C11.1903 16.8399 11.1903 16.1265 11.6322 15.6846C12.0541 15.2628 12.8075 15.2628 13.2294 15.6846L16.9708 19.4261L20.7122 15.6846Z" fill="#D23200"/>
<path fill-rule="evenodd" clip-rule="evenodd" d="M24.4756 44.5286C24.0058 46.5806 22.2721 48.0671 20.1923 48.2332L14.6106 48.2532C12.5 48.2532 10.6596 46.9027 10.0337 44.9106L7.1555 32.5283C7.0462 32.0479 6.7956 31.6254 6.45203 31.2818L6.45042 31.2802C2.44978 27.3689 0.338764 23.0457 0.150544 18.4277L0.140625 17.7235L0.150498 17.1496L0.150546 17.1481C0.44783 7.89695 7.93885 0.653198 17.2006 0.653198C26.6102 0.653198 34.2606 8.30373 34.2606 17.7032C34.2606 22.5994 32.1501 27.1701 27.9509 31.2701L27.9492 31.2718C27.6879 31.533 27.4938 31.8367 27.3449 32.2089L27.3393 32.223L24.4756 44.5286ZM22.1874 44.3247L22.1923 44.3119L23.2724 39.6632H11.1191L12.1259 44.0188C12.3651 45.041 13.2228 45.82 14.2926 45.9712L14.3062 45.9731L19.7906 45.9932C20.8445 45.9932 21.7981 45.3411 22.1874 44.3247ZM31.9904 18.4128L32.0105 17.7089L32.0006 17.1595L32.0005 17.1556C31.6964 9.16812 25.198 2.9132 17.2006 2.9132C9.2033 2.9132 2.70466 9.15803 2.4107 17.1558L2.40041 17.7196L2.42064 18.419L2.42085 18.4232C2.6239 22.4943 4.46396 26.1801 8.04164 29.667C8.60624 30.2125 9.02729 30.8912 9.2576 31.6162L10.6119 37.4132H16.0806V30.9932C16.0806 30.3737 16.5911 29.8632 17.2106 29.8632C17.8301 29.8632 18.3406 30.3737 18.3406 30.9932V37.4132H23.8097L25.0556 32.0176C25.2281 31.2606 25.5923 30.5415 26.0893 29.967L26.3736 29.6631C29.8987 26.2174 31.7975 22.4433 31.9904 18.4128Z" fill="#D23200"/>
</svg>
