<?xml version="1.0" encoding="utf-8"?>
<!-- Generator: Adobe Illustrator 25.3.1, SVG Export Plug-In . SVG Version: 6.00 Build 0)  -->
<svg version="1.1" id="Layer_1" xmlns="http://www.w3.org/2000/svg" xmlns:xlink="http://www.w3.org/1999/xlink" x="0px" y="0px"
	 viewBox="0 0 42 49" style="enable-background:new 0 0 42 49;" xml:space="preserve">
<style type="text/css">
	.st0{fill:#D23200;}
</style>
<path class="st0" d="M41.2,4.9C35,1.8,28.1,0.2,21.1,0.2c-6.9,0-13.9,1.6-20.1,4.7L0.4,5.2V6c0,26.8,8.1,32.7,17.5,39.6
	c0.8,0.6,1.7,1.2,2.5,1.9l0.8,0.6l0.8-0.6c1-0.8,2-1.6,3-2.4c8.7-6.8,17-13.3,17-39V5.2L41.2,4.9z M23.4,43
	c-0.8,0.6-1.5,1.2-2.3,1.8c-0.6-0.4-1.2-0.9-1.8-1.3C14.9,40.3,11,37.4,8,32.5c4.1-2.5,7.8-6,6.7-12.2c2.4,0.7,3.9,2.1,5.2,6.1
	l0.6,2l1.5-1.5c0.3-0.3,0.7-0.7,1.1-1.1c2.2-2,5.3-4.8,3.9-9.8c4.9,2.4,7.4,8,9,11.6l0.3-0.1C33.4,35.2,28.6,39,23.4,43z M37.4,24.4
	c-2.1-4.4-5.7-10.3-12.2-11.7l-2.6-0.6l1.2,2.4c2.5,4.9,0.3,7.1-2.1,9.3c-1.9-4.6-4.6-5.8-8.4-6.3l-1.9-0.3l0.6,1.9
	c1.8,5.5-0.6,8.5-5,11.2c-2.4-5.2-3.9-12.4-4-23.5c5.7-2.7,12-4.1,18.3-4.1c6.3,0,12.6,1.4,18.3,4.1C39.4,14.2,38.6,19.9,37.4,24.4z
	"/>
</svg>
