<svg width="46" height="48" viewBox="0 0 46 48" fill="none" xmlns="http://www.w3.org/2000/svg">
<path fill-rule="evenodd" clip-rule="evenodd" d="M23.8585 2.81756C19.2868 2.66471 14.8723 3.65867 11.7566 5.55737C11.1968 5.89852 10.4665 5.72126 10.1253 5.16146C9.78416 4.60165 9.96142 3.87127 10.5212 3.53012C14.1242 1.33445 19.0247 0.280596 23.9378 0.444859C28.8571 0.609329 33.9296 1.99947 37.863 4.85247C38.3937 5.23738 38.5118 5.97961 38.1269 6.51028C37.742 7.04095 36.9998 7.15912 36.4691 6.77421C33.0057 4.26208 28.4239 2.9702 23.8585 2.81756ZM23.9258 8.84317C24.0031 8.19217 24.5935 7.72707 25.2445 7.80433C36.7372 9.16835 43.9118 18.1005 45.9527 29.7308C46.066 30.3765 45.6344 30.9918 44.9887 31.1051C44.343 31.2184 43.7277 30.7868 43.6144 30.1411C41.6989 19.2253 35.1281 11.3681 24.9647 10.1618C24.3137 10.0845 23.8486 9.49417 23.9258 8.84317ZM16.5324 19.8917C11.5096 23.9112 8.73782 32.5281 14.1066 43.3752C14.3974 43.9627 14.1568 44.6747 13.5693 44.9655C12.9817 45.2564 12.2697 45.0158 11.9789 44.4283C6.22436 32.8017 8.97653 22.8977 15.0491 18.0381C18.0642 15.6254 21.8667 14.5021 25.6956 15.1038C29.5346 15.707 33.2841 18.0245 36.2359 22.2762C36.6098 22.8147 36.4763 23.5544 35.9378 23.9282C35.3993 24.3021 34.6596 24.1686 34.2858 23.6301C31.6507 19.8345 28.4392 17.9381 25.3271 17.449C22.2048 16.9584 19.0656 17.8646 16.5324 19.8917ZM18.6761 29.8883C18.0682 33.6742 19.0945 39.3096 22.3635 45.9143C22.6543 46.5019 22.4137 47.2139 21.8262 47.5047C21.2386 47.7955 20.5266 47.5549 20.2358 46.9674C16.8518 40.1302 15.6156 33.9743 16.3321 29.5119C16.6922 27.2693 17.5621 25.3688 18.9991 24.0777C20.4584 22.7665 22.3775 22.1973 24.5817 22.4062C27.2569 22.6599 29.0167 23.6328 30.1744 25.2048C31.2633 26.6833 31.7177 28.5769 32.1141 30.368C32.1476 30.5195 32.1809 30.6711 32.2143 30.8232L32.2144 30.8236L32.2205 30.8516C33.0007 34.4044 33.8157 38.1156 37.8639 41.0344C38.3957 41.4178 38.516 42.1597 38.1326 42.6914C37.7492 43.2232 37.0073 43.3435 36.4755 42.9601C31.6809 39.5032 30.6889 34.9795 29.9206 31.4495C29.8787 31.2571 29.8374 31.0672 29.7961 30.8809C29.3851 29.0233 29.009 27.6258 28.2628 26.6125C27.5863 25.694 26.5079 24.9735 24.3576 24.7697C22.7137 24.6138 21.4813 25.039 20.5857 25.8436C19.6677 26.6685 18.9783 28.0063 18.6761 29.8883ZM7.58534 7.56733C8.01905 8.05894 7.97211 8.80904 7.48051 9.24275C5.41476 11.0652 4.02173 12.9024 2.64563 15.2929C2.31857 15.861 1.59285 16.0565 1.02469 15.7294C0.45654 15.4023 0.261101 14.6766 0.588167 14.1085C2.06492 11.5432 3.61234 9.4895 5.90993 7.4625C6.40153 7.0288 7.15164 7.07573 7.58534 7.56733ZM37.3009 28.7631C37.9487 28.6623 38.5555 29.1058 38.6563 29.7536C39.1663 33.0332 40.8056 35.0561 42.9376 36.5901C43.4697 36.973 43.5907 37.7147 43.2078 38.2469C42.825 38.779 42.0832 38.9 41.5511 38.5171C39.0159 36.693 36.9377 34.1514 36.3104 30.1184C36.2097 29.4706 36.6531 28.8638 37.3009 28.7631ZM23.7462 30.0219C24.3999 29.9729 24.9696 30.4631 25.0186 31.1169C25.4127 36.3757 27.3398 40.8406 30.4419 44.3902C30.8733 44.8838 30.8228 45.6337 30.3292 46.0651C29.8355 46.4965 29.0857 46.446 28.6543 45.9524C25.2062 42.0069 23.0828 37.053 22.6512 31.2943C22.6022 30.6406 23.0924 30.0709 23.7462 30.0219ZM19.2156 9.16194C19.4698 9.76622 19.1861 10.4622 18.5818 10.7164C8.45159 14.9781 3.32018 24.435 4.70005 36.1451C4.77677 36.7962 4.31117 37.3862 3.66011 37.4629C3.00904 37.5396 2.41906 37.074 2.34234 36.423C0.85236 23.7783 6.45257 13.2435 17.6612 8.52811C18.2655 8.27389 18.9614 8.55767 19.2156 9.16194Z" fill="white"/>
</svg>
