<svg width="46" height="48" viewBox="0 0 46 48" fill="none" xmlns="http://www.w3.org/2000/svg">
<path fill-rule="evenodd" clip-rule="evenodd" d="M23.8587 2.81756C19.2871 2.66471 14.8725 3.65867 11.7569 5.55737C11.1971 5.89852 10.4667 5.72126 10.1256 5.16146C9.78441 4.60165 9.96166 3.87127 10.5215 3.53012C14.1244 1.33445 19.0249 0.280596 23.938 0.444859C28.8573 0.609329 33.9298 1.99947 37.8632 4.85247C38.3939 5.23738 38.5121 5.97961 38.1272 6.51028C37.7423 7.04095 37 7.15912 36.4694 6.77421C33.0059 4.26208 28.4242 2.9702 23.8587 2.81756ZM23.9261 8.84317C24.0033 8.19217 24.5937 7.72707 25.2447 7.80433C36.7375 9.16835 43.912 18.1005 45.9529 29.7308C46.0662 30.3765 45.6346 30.9918 44.9889 31.1051C44.3432 31.2184 43.7279 30.7868 43.6146 30.1411C41.6991 19.2253 35.1284 11.3681 24.9649 10.1618C24.3139 10.0845 23.8488 9.49417 23.9261 8.84317ZM16.5327 19.8917C11.5098 23.9112 8.73806 32.5281 14.1068 43.3752C14.3976 43.9627 14.157 44.6747 13.5695 44.9655C12.982 45.2564 12.2699 45.0158 11.9791 44.4283C6.22461 32.8017 8.97677 22.8977 15.0493 18.0381C18.0644 15.6254 21.8669 14.5021 25.6958 15.1038C29.5348 15.707 33.2844 18.0245 36.2362 22.2762C36.61 22.8147 36.4765 23.5543 35.938 23.9282C35.3995 24.3021 34.6599 24.1686 34.286 23.6301C31.6509 19.8345 28.4395 17.9381 25.3273 17.449C22.205 16.9584 19.0659 17.8646 16.5327 19.8917ZM18.6764 29.8883C18.0684 33.6742 19.0947 39.3096 22.3637 45.9143C22.6545 46.5019 22.414 47.2139 21.8264 47.5047C21.2389 47.7955 20.5269 47.5549 20.2361 46.9674C16.852 40.1302 15.6158 33.9743 16.3324 29.5119C16.6925 27.2693 17.5623 25.3688 18.9993 24.0777C20.4587 22.7665 22.3777 22.1973 24.582 22.4062C27.2571 22.6599 29.0169 23.6328 30.1746 25.2048C31.2635 26.6833 31.718 28.5769 32.1143 30.368C32.1479 30.5195 32.1812 30.6711 32.2146 30.8232L32.2146 30.8236L32.2208 30.8516C33.001 34.4044 33.8159 38.1156 37.8642 41.0344C38.3959 41.4178 38.5162 42.1597 38.1328 42.6914C37.7494 43.2232 37.0075 43.3435 36.4758 42.9601C31.6811 39.5032 30.6892 34.9795 29.9208 31.4495C29.8789 31.2571 29.8376 31.0672 29.7964 30.8809C29.3853 29.0233 29.0093 27.6258 28.2631 26.6125C27.5866 25.694 26.5081 24.9735 24.3579 24.7697C22.7139 24.6138 21.4815 25.039 20.586 25.8436C19.6679 26.6685 18.9786 28.0063 18.6764 29.8883ZM7.58559 7.56733C8.01929 8.05894 7.97236 8.80904 7.48076 9.24275C5.415 11.0652 4.02197 12.9024 2.64588 15.2929C2.31881 15.861 1.59309 16.0565 1.02494 15.7294C0.456785 15.4023 0.261345 14.6766 0.588411 14.1085C2.06516 11.5432 3.61258 9.4895 5.91017 7.4625C6.40178 7.0288 7.15188 7.07573 7.58559 7.56733ZM37.3012 28.7631C37.9489 28.6623 38.5558 29.1058 38.6565 29.7536C39.1666 33.0332 40.8059 35.0561 42.9378 36.5901C43.47 36.973 43.591 37.7147 43.2081 38.2469C42.8252 38.779 42.0834 38.9 41.5513 38.5171C39.0161 36.693 36.9379 34.1514 36.3107 30.1184C36.2099 29.4706 36.6534 28.8638 37.3012 28.7631ZM23.7464 30.0219C24.4001 29.9729 24.9698 30.4631 25.0188 31.1169C25.413 36.3757 27.34 40.8406 30.4421 44.3902C30.8735 44.8838 30.823 45.6337 30.3294 46.0651C29.8358 46.4965 29.0859 46.446 28.6545 45.9524C25.2065 42.0069 23.083 37.053 22.6514 31.2943C22.6024 30.6406 23.0927 30.0709 23.7464 30.0219ZM19.2159 9.16194C19.4701 9.76622 19.1863 10.4622 18.582 10.7164C8.45184 14.9781 3.32043 24.435 4.7003 36.1451C4.77702 36.7962 4.31142 37.3862 3.66035 37.4629C3.00929 37.5396 2.4193 37.074 2.34259 36.423C0.852604 23.7783 6.45282 13.2435 17.6614 8.52811C18.2657 8.27389 18.9616 8.55767 19.2159 9.16194Z" fill="#212121"/>
</svg>
