<svg width="49" height="49" viewBox="0 0 49 49" fill="none" xmlns="http://www.w3.org/2000/svg">
<path fill-rule="evenodd" clip-rule="evenodd" d="M16.379 19.1183L16.1519 19.103H5.14707C4.2102 19.103 3.43649 19.7991 3.31394 20.7024L3.31235 20.7142L3.29707 20.9413V43.953C3.29707 44.8899 3.99315 45.6636 4.89648 45.7862L4.90822 45.7878L5.13531 45.803H16.1402C17.077 45.803 17.8508 45.107 17.9733 44.2036L17.9749 44.1919L17.9902 43.9648V20.953C17.9902 20.0162 17.2941 19.2425 16.3908 19.1199L16.379 19.1183ZM9.29707 4.94128V14.103H6.99707V4.95304C6.99707 2.75866 8.70042 0.96183 10.8568 0.813019L11.153 0.80304H44.1523C46.3467 0.80304 48.1435 2.50639 48.2923 4.66276L48.3023 4.95894V27.453C48.3023 29.6474 46.599 31.4443 44.4426 31.5931L44.1464 31.603H34.2931V37.803H37.1471C37.7822 37.803 38.2971 38.3179 38.2971 38.953C38.2971 39.5312 37.8701 40.0102 37.3145 40.091L37.1353 40.103H22.9971V37.803H31.9931V31.603H22.9971V29.303H44.1523C45.0892 29.303 45.8629 28.607 45.9854 27.7036L45.987 27.6919L46.0023 27.4648V4.95304C46.0023 4.01617 45.3062 3.24246 44.4029 3.11991L44.3912 3.11832L44.1641 3.10304H11.1471C10.2102 3.10304 9.43649 3.79912 9.31394 4.70245L9.31235 4.71419L9.29707 4.94128ZM16.1402 16.803C18.3346 16.803 20.1314 18.5064 20.2802 20.6628L20.2902 20.9589V43.953C20.2902 46.1474 18.5868 47.9443 16.4305 48.0931L16.1343 48.103H5.14707C2.95269 48.103 1.15586 46.3997 1.00705 44.2433L0.99707 43.9471V20.953C0.99707 18.7587 2.70042 16.9618 4.85679 16.813L5.15297 16.803H16.1402ZM12.147 39.803C12.7822 39.803 13.297 40.3179 13.297 40.953C13.297 41.5312 12.8701 42.0102 12.3144 42.091L12.1353 42.103H9.14474C8.50961 42.103 7.99474 41.5882 7.99474 40.953C7.99474 40.3749 8.42168 39.8959 8.97734 39.8151L9.1565 39.803H12.147Z" fill="#212121"/>
</svg>
