<svg width="48" height="48" viewBox="0 0 48 48" fill="none" xmlns="http://www.w3.org/2000/svg">
<path fill-rule="evenodd" clip-rule="evenodd" d="M23.7 30.849V45.0158H39.8666C42.9042 45.0158 45.3666 42.5533 45.3666 39.5158V29.003C45.3666 28.3586 45.889 27.8363 46.5333 27.8363C47.1776 27.8363 47.7 28.3586 47.7 29.003V39.5158C47.7 43.842 44.1929 47.3491 39.8666 47.3491H8.53329C4.20705 47.3491 0.699951 43.842 0.699951 39.5158V8.18246C0.699951 3.85623 4.20705 0.349121 8.53329 0.349121H19.0461C19.6904 0.349121 20.2128 0.87146 20.2128 1.51578C20.2128 2.16013 19.6904 2.68246 19.0461 2.68246H8.53329C5.49572 2.68246 3.03328 5.1449 3.03328 8.18246V24.349H17.2C20.7898 24.349 23.7 27.2591 23.7 30.849ZM17.2 26.6823H3.03328V39.5158C3.03328 42.5533 5.49572 45.0158 8.53329 45.0158H21.3666V30.849C21.3666 28.5478 19.5011 26.6823 17.2 26.6823ZM45.3664 18.1825V4.3324L30.6916 19.0073C30.236 19.4629 29.4973 19.4629 29.0417 19.0073C28.586 18.5516 28.586 17.813 29.0417 17.3573L43.7165 2.68246H29.8666C29.2223 2.68246 28.7 2.16013 28.7 1.51578C28.7 0.87146 29.2223 0.349121 29.8666 0.349121H46.5331C47.1774 0.349121 47.6997 0.87146 47.6997 1.51578V18.1825C47.6997 18.8268 47.1774 19.3491 46.5331 19.3491C45.8888 19.3491 45.3664 18.8268 45.3664 18.1825Z" fill="#212121"/>
</svg>
