<svg width="47" height="48" viewBox="0 0 47 48" fill="none" xmlns="http://www.w3.org/2000/svg">
<path fill-rule="evenodd" clip-rule="evenodd" d="M46.249 14.9864L24.0849 27.7924C23.9089 27.8939 23.7089 27.9475 23.5058 27.9475C23.3025 27.9475 23.1028 27.894 22.9267 27.7924L0.762822 14.9866C0.58774 14.8855 0.441896 14.7402 0.340343 14.5655C0.23899 14.3912 0.184916 14.1934 0.18346 13.9918C0.182885 13.7882 0.236002 13.588 0.337465 13.4115C0.439149 13.2345 0.585779 13.0876 0.762509 12.9856L22.9262 0.20451C23.1024 0.102824 23.3026 0.0490723 23.5058 0.0490723C23.7091 0.0490723 23.9089 0.102635 24.0849 0.204278L46.2491 12.9856C46.4257 13.0877 46.5726 13.2348 46.6741 13.4115C46.7756 13.588 46.8287 13.7882 46.8281 13.9918C46.8266 14.1934 46.7726 14.3912 46.6712 14.5655C46.5696 14.7402 46.424 14.8854 46.249 14.9864ZM43.3741 13.9983L23.5058 2.64497L3.63743 13.9983L23.5058 25.3517L43.3741 13.9983ZM46.3815 22.9213C46.502 23.0145 46.603 23.1305 46.6785 23.2627C46.8291 23.5285 46.8686 23.8429 46.7884 24.1377C46.7082 24.4326 46.5137 24.6845 46.2487 24.8374L24.0846 37.6433C23.9086 37.7449 23.709 37.7983 23.5058 37.7983C23.3027 37.7983 23.1027 37.7447 22.9267 37.6431L0.762004 24.8369C0.497113 24.6841 0.303396 24.4328 0.223121 24.1377C0.14295 23.843 0.182426 23.5286 0.332925 23.2629C0.408522 23.1306 0.509484 23.0145 0.630031 22.9213C0.750874 22.8279 0.88901 22.7593 1.03648 22.7194C1.18395 22.6796 1.33784 22.6694 1.4893 22.6893C1.64075 22.7092 1.78761 22.7593 1.91977 22.8359L23.5031 35.2019L45.5235 22.6891C45.6746 22.6694 45.828 22.6797 45.9751 22.7194C46.1225 22.7593 46.2607 22.8279 46.3815 22.9213ZM1.91977 32.6866L23.5031 45.0526L45.5235 32.5398C45.6746 32.5202 45.828 32.5305 45.9751 32.5702C46.1225 32.61 46.2607 32.6786 46.3815 32.7721C46.5019 32.8652 46.6031 32.9816 46.6786 33.1136C46.8291 33.3793 46.8686 33.6938 46.7884 33.9884C46.7082 34.2834 46.5137 34.5353 46.2487 34.6881L24.0846 47.4941C23.9086 47.5956 23.709 47.6491 23.5058 47.6491C23.3027 47.6491 23.1027 47.5955 22.9267 47.4939L0.762005 34.6876C0.497114 34.5349 0.303396 34.2835 0.223121 33.9884C0.142923 33.6937 0.182451 33.3792 0.333076 33.1134C0.408657 32.9812 0.509564 32.8652 0.630033 32.7721C0.750873 32.6786 0.889008 32.61 1.03648 32.5702C1.18395 32.5304 1.33785 32.5201 1.4893 32.54C1.64075 32.5599 1.7876 32.6101 1.91977 32.6866Z" fill="white"/>
</svg>
