<svg width="46" height="49" viewBox="0 0 46 49" fill="none" xmlns="http://www.w3.org/2000/svg">
<path fill-rule="evenodd" clip-rule="evenodd" d="M15.1988 43.1152C15.1972 43.113 15.1956 43.1108 15.1939 43.1086C15.1956 43.1108 15.1972 43.113 15.1988 43.1151M29.442 36.4033C29.3509 36.4435 29.3032 36.5446 29.3301 36.6405C29.5517 37.4284 29.6703 38.2597 29.6703 39.119C29.6703 44.1636 25.5809 48.2531 20.5362 48.2531C17.2592 48.2531 14.385 46.5275 12.7731 43.9345C12.7205 43.8499 12.6137 43.8169 12.5226 43.857L9.32065 45.2676C7.89131 45.8973 6.22225 45.5883 5.11302 44.4887L1.85468 41.2587C0.708583 40.1225 0.405028 38.3865 1.0976 36.9288L15.6689 6.26095C17.2185 2.99958 21.5616 2.31461 24.0398 4.94075L41.606 23.5562C44.0402 26.1358 43.1877 30.3478 39.9419 31.7777L29.442 36.4033ZM14.9979 42.7665C14.9431 42.7907 14.902 42.8382 14.8859 42.8959C14.8698 42.9537 14.8805 43.0156 14.915 43.0646C16.1571 44.8311 18.2118 45.9862 20.5362 45.9862C24.3289 45.9862 27.4035 42.9116 27.4035 39.119C27.4035 38.6092 27.3479 38.1123 27.2424 37.6339C27.2295 37.5753 27.191 37.5257 27.1376 37.4986C27.0841 37.4715 27.0213 37.4697 26.9665 37.4939L14.9979 42.7665ZM32.8965 0.711615C33.4903 0.909569 33.8113 1.55146 33.6133 2.14532L32.2799 6.14566C32.0819 6.73953 31.44 7.06047 30.8461 6.86252C30.2523 6.66457 29.9313 6.02267 30.1293 5.42881L31.4627 1.42847C31.6607 0.834608 32.3026 0.513661 32.8965 0.711615ZM42.6759 3.65229C43.1185 4.09492 43.1185 4.81258 42.6759 5.25522L37.3421 10.589C36.8994 11.0316 36.1818 11.0316 35.7391 10.589C35.2965 10.1464 35.2965 9.42871 35.7391 8.98607L41.0729 3.65229C41.5156 3.20965 42.2332 3.20965 42.6759 3.65229ZM22.391 6.49655C21.0072 5.03002 18.5818 5.41253 17.7165 7.2338L3.14513 37.9017C2.86567 38.4898 2.98816 39.1903 3.45061 39.6488L6.70895 42.8788C7.15653 43.3225 7.83 43.4472 8.40674 43.1931L39.028 29.7032C40.8405 28.9047 41.3167 26.5525 39.9573 25.112L22.391 6.49655ZM39.4049 15.1213C39.4049 14.4953 39.9124 13.9879 40.5383 13.9879H44.5366C45.1626 13.9879 45.6701 14.4953 45.6701 15.1213C45.6701 15.7473 45.1626 16.2548 44.5366 16.2548H40.5383C39.9124 16.2548 39.4049 15.7473 39.4049 15.1213Z" fill="#212121"/>
</svg>
