<svg width="48" height="48" viewBox="0 0 48 48" fill="none" xmlns="http://www.w3.org/2000/svg">
<path fill-rule="evenodd" clip-rule="evenodd" d="M23.7002 30.849V45.0158H39.8669C42.9044 45.0158 45.3669 42.5534 45.3669 39.5158V29.003C45.3669 28.3586 45.8892 27.8363 46.5335 27.8363C47.1779 27.8363 47.7002 28.3586 47.7002 29.003V39.5158C47.7002 43.842 44.1931 47.3491 39.8669 47.3491H8.53353C4.2073 47.3491 0.700195 43.842 0.700195 39.5158V8.18246C0.700195 3.85622 4.2073 0.349121 8.53353 0.349121H19.0463C19.6907 0.349121 20.213 0.871455 20.213 1.51579C20.213 2.16012 19.6907 2.68245 19.0463 2.68245H8.53353C5.49596 2.68245 3.03353 5.14489 3.03353 8.18246V24.349H17.2002C20.79 24.349 23.7002 27.2591 23.7002 30.849ZM17.2002 26.6823H3.03353V39.5158C3.03353 42.5534 5.49596 45.0158 8.53353 45.0158H21.3669V30.849C21.3669 28.5478 19.5014 26.6823 17.2002 26.6823ZM45.3667 18.1825V4.33241L30.6918 19.0072C30.2362 19.4629 29.4975 19.4629 29.0419 19.0072C28.5863 18.5516 28.5863 17.8129 29.0419 17.3573L43.7168 2.68245H29.8669C29.2225 2.68245 28.7002 2.16012 28.7002 1.51579C28.7002 0.871456 29.2225 0.349121 29.8669 0.349121H46.5333C47.1777 0.349121 47.7 0.871455 47.7 1.51579V18.1825C47.7 18.8268 47.1777 19.3491 46.5333 19.3491C45.889 19.3491 45.3667 18.8268 45.3667 18.1825Z" fill="white"/>
</svg>
