<svg width="43" height="48" viewBox="0 0 43 48" fill="none" xmlns="http://www.w3.org/2000/svg">
<path fill-rule="evenodd" clip-rule="evenodd" d="M41.7384 7.04813C41.7468 7.04841 41.7541 7.04865 41.7603 7.04885L41.7507 7.04854C41.7469 7.04842 41.7428 7.04828 41.7384 7.04813ZM17.5621 27.6644C17.6773 27.7796 17.8634 27.7818 17.9813 27.6692L30.1212 16.0811C30.6006 15.6235 31.3602 15.6412 31.8178 16.1206C32.2754 16.6 32.2578 17.3596 31.7784 17.8172L18.5784 30.4172C18.1068 30.8673 17.3622 30.8586 16.9013 30.3977L11.5013 24.9977C11.0326 24.5291 11.0326 23.7693 11.5013 23.3006C11.9699 22.832 12.7297 22.832 13.1983 23.3006L17.5621 27.6644ZM1.52735 7.34936L1.54887 7.34871C1.57009 7.34804 1.60381 7.34689 1.64836 7.34509C1.73748 7.3415 1.87207 7.33527 2.04764 7.32489C2.39887 7.30413 2.91348 7.26679 3.55542 7.20078C4.84071 7.0686 6.6289 6.82222 8.63401 6.36651C12.6773 5.44757 17.4512 3.71079 20.8195 0.482784C21.2837 0.0379651 22.0159 0.0379651 22.4801 0.482784C25.8485 3.71079 30.6225 5.44757 34.6659 6.36651C36.6711 6.82222 38.4593 7.0686 39.7447 7.20078C40.3867 7.26679 40.9013 7.30413 41.2525 7.32489C41.4281 7.33527 41.5627 7.3415 41.6518 7.34509C41.6964 7.34689 41.7301 7.34804 41.7513 7.34871L41.7736 7.34938L41.7768 7.34947L41.7779 7.34949C42.4295 7.36491 42.9501 7.89762 42.9501 8.54917V20.2492C42.9501 31.5262 36.9529 42.8242 22.0077 47.4945C21.7747 47.5674 21.525 47.5674 21.2919 47.4945C13.8631 45.1731 8.60592 41.199 5.21389 36.308C1.82808 31.4261 0.350098 25.7028 0.350098 19.9492V8.54928C0.350085 7.89761 0.870934 7.36502 1.52228 7.34949L1.52735 7.34936ZM3.02513 9.66062C2.86967 9.67362 2.75012 9.80358 2.75012 9.95958L2.7501 19.9492C2.75011 25.2956 4.122 30.5223 7.18602 34.9403C10.1773 39.2534 14.829 42.8653 21.5568 45.0598C21.6172 45.0795 21.6824 45.0795 21.7428 45.0598C28.4927 42.858 33.1996 39.2124 36.2172 34.829C39.2334 30.4477 40.5501 25.3465 40.5501 20.2492V9.95959C40.5501 9.80359 40.4305 9.67362 40.2751 9.66063C40.0406 9.64103 39.7811 9.61718 39.4992 9.58819C38.1407 9.44849 36.2539 9.18862 34.134 8.70683C30.292 7.83365 25.5541 6.20295 21.8413 3.12562C21.7302 3.03359 21.5694 3.03359 21.4584 3.12562C17.7456 6.20294 13.0078 7.83365 9.16591 8.70683C7.04608 9.18862 5.15934 9.44849 3.80094 9.58819C3.51904 9.61718 3.25957 9.64103 3.02513 9.66062Z" fill="#D23200"/>
</svg>
