<svg width="48" height="48" viewBox="0 0 48 48" fill="none" xmlns="http://www.w3.org/2000/svg">
<path fill-rule="evenodd" clip-rule="evenodd" d="M32.5924 21.6283L32.846 22.6H36.7002C37.0185 22.6 37.3237 22.7264 37.5488 22.9515C37.7738 23.1765 37.9002 23.4817 37.9002 23.8C37.9002 24.1182 37.7738 24.4235 37.5488 24.6485C37.3237 24.8736 37.0185 25 36.7002 25H32.846L32.5924 25.9716C32.2019 27.4677 31.4196 28.8327 30.3263 29.9261C29.233 31.0194 27.868 31.8016 26.3719 32.1921L25.4002 32.4458V36.3C25.4002 36.6182 25.2738 36.9235 25.0488 37.1485C24.8237 37.3736 24.5185 37.5 24.2002 37.5C23.882 37.5 23.5768 37.3736 23.3517 37.1485C23.1267 36.9235 23.0002 36.6182 23.0002 36.3V32.4458L22.0286 32.1921C20.5325 31.8016 19.1675 31.0194 18.0742 29.9261C16.9808 28.8327 16.1986 27.4677 15.8081 25.9716L15.5545 25H11.7002C11.382 25 11.0768 24.8736 10.8517 24.6485C10.6267 24.4235 10.5002 24.1182 10.5002 23.8C10.5002 23.4817 10.6267 23.1765 10.8517 22.9515C11.0768 22.7264 11.382 22.6 11.7002 22.6H15.5545L15.8081 21.6283C16.1986 20.1322 16.9808 18.7673 18.0742 17.6739C19.1675 16.5806 20.5325 15.7984 22.0286 15.4078L23.0002 15.1542V11.3C23.0002 10.9817 23.1267 10.6765 23.3517 10.4515C23.5768 10.2264 23.882 10.1 24.2002 10.1C24.5185 10.1 24.8237 10.2264 25.0488 10.4515C25.2738 10.6765 25.4002 10.9817 25.4002 11.3V15.1542L26.3719 15.4078C27.868 15.7984 29.233 16.5806 30.3263 17.6739C31.4196 18.7673 32.2019 20.1322 32.5924 21.6283ZM14.2002 0.0999878C14.5185 0.0999878 14.8237 0.226416 15.0488 0.451459C15.2738 0.676503 15.4002 0.981729 15.4002 1.29999C15.4002 1.61825 15.2738 1.92347 15.0488 2.14852C14.8237 2.37356 14.5185 2.49999 14.2002 2.49999H6.70024C5.69242 2.49999 4.72587 2.90035 4.01324 3.61298C3.3006 4.32562 2.90024 5.29216 2.90024 6.29999V13.8C2.90024 14.1182 2.77381 14.4235 2.54877 14.6485C2.32373 14.8736 2.0185 15 1.70024 15C1.38198 15 1.07676 14.8736 0.851713 14.6485C0.626669 14.4235 0.500241 14.1182 0.500241 13.8V6.29999C0.500241 4.65565 1.15345 3.07865 2.31618 1.91593C3.4789 0.7532 5.0559 0.0999878 6.70024 0.0999878H14.2002ZM6.70024 45.1H14.2002C14.5185 45.1 14.8237 45.2264 15.0488 45.4515C15.2738 45.6765 15.4002 45.9817 15.4002 46.3C15.4002 46.6182 15.2738 46.9235 15.0488 47.1485C14.8237 47.3736 14.5185 47.5 14.2002 47.5H6.70024C5.0559 47.5 3.4789 46.8468 2.31618 45.6841C1.15345 44.5213 0.500241 42.9443 0.500241 41.3V33.8C0.500241 33.4817 0.626669 33.1765 0.851714 32.9515C1.07676 32.7264 1.38198 32.6 1.70024 32.6C2.0185 32.6 2.32373 32.7264 2.54877 32.9515C2.77381 33.1765 2.90024 33.4817 2.90024 33.8V41.3C2.90024 42.3078 3.3006 43.2744 4.01324 43.987C4.72588 44.6996 5.69242 45.1 6.70024 45.1ZM20.7001 29.0382C21.7362 29.7305 22.9542 30.1 24.2002 30.1C25.8711 30.1 27.4735 29.4362 28.655 28.2548C29.8365 27.0733 30.5002 25.4709 30.5002 23.8C30.5002 22.554 30.1308 21.3359 29.4385 20.2999C28.7462 19.2639 27.7623 18.4564 26.6111 17.9795C25.46 17.5027 24.1933 17.378 22.9712 17.621C21.7491 17.8641 20.6265 18.4641 19.7455 19.3452C18.8644 20.2263 18.2644 21.3488 18.0213 22.5709C17.7782 23.793 17.903 25.0597 18.3798 26.2109C18.8566 27.3621 19.6641 28.346 20.7001 29.0382ZM45.8517 32.9515C46.0768 32.7264 46.382 32.6 46.7002 32.6C47.0185 32.6 47.3237 32.7264 47.5488 32.9515C47.7738 33.1765 47.9002 33.4817 47.9002 33.8V41.3C47.9002 42.9443 47.247 44.5213 46.0843 45.6841C44.9216 46.8468 43.3446 47.5 41.7002 47.5H34.2002C33.882 47.5 33.5768 47.3736 33.3517 47.1485C33.1267 46.9235 33.0002 46.6182 33.0002 46.3C33.0002 45.9817 33.1267 45.6765 33.3517 45.4515C33.5768 45.2264 33.882 45.1 34.2002 45.1H41.7002C42.7081 45.1 43.6746 44.6996 44.3872 43.987C45.0999 43.2744 45.5002 42.3078 45.5002 41.3V33.8C45.5002 33.4817 45.6267 33.1765 45.8517 32.9515ZM34.2002 0.0999878H41.7002C43.3446 0.0999878 44.9216 0.753201 46.0843 1.91593C47.247 3.07865 47.9002 4.65564 47.9002 6.29999V13.8C47.9002 14.1182 47.7738 14.4235 47.5488 14.6485C47.3237 14.8736 47.0185 15 46.7002 15C46.382 15 46.0768 14.8736 45.8517 14.6485C45.6267 14.4235 45.5002 14.1182 45.5002 13.8V6.29999C45.5002 5.29217 45.0999 4.32562 44.3872 3.61298C43.6746 2.90034 42.7081 2.49999 41.7002 2.49999H34.2002C33.882 2.49999 33.5768 2.37356 33.3517 2.14852C33.1267 1.92347 33.0002 1.61825 33.0002 1.29999C33.0002 0.981728 33.1267 0.676503 33.3517 0.451459C33.5768 0.226416 33.882 0.0999878 34.2002 0.0999878Z" fill="#1A1A1A"/>
</svg>
