<svg width="47" height="48" viewBox="0 0 47 48" fill="none" xmlns="http://www.w3.org/2000/svg">
<path fill-rule="evenodd" clip-rule="evenodd" d="M46.2491 14.9864L24.085 27.7924C23.909 27.8939 23.709 27.9475 23.5059 27.9475C23.3026 27.9475 23.1029 27.894 22.9269 27.7924L0.762939 14.9866C0.587857 14.8855 0.442013 14.7402 0.34046 14.5655C0.239107 14.3912 0.185032 14.1934 0.183577 13.9918C0.183002 13.7882 0.236119 13.588 0.337582 13.4115C0.439266 13.2345 0.585895 13.0876 0.762626 12.9856L22.9264 0.20451C23.1025 0.102824 23.3027 0.0490723 23.5059 0.0490723C23.7092 0.0490723 23.909 0.102635 24.085 0.204278L46.2493 12.9856C46.4258 13.0877 46.5727 13.2348 46.6742 13.4115C46.7757 13.588 46.8288 13.7882 46.8282 13.9918C46.8268 14.1934 46.7727 14.3912 46.6713 14.5655C46.5697 14.7402 46.4241 14.8854 46.2491 14.9864ZM43.3742 13.9983L23.5059 2.64497L3.63755 13.9983L23.5059 25.3517L43.3742 13.9983ZM46.3816 22.9213C46.5021 23.0145 46.6031 23.1305 46.6787 23.2627C46.8292 23.5285 46.8687 23.8429 46.7886 24.1377C46.7083 24.4326 46.5138 24.6845 46.2488 24.8374L24.0847 37.6433C23.9087 37.7449 23.7091 37.7983 23.5059 37.7983C23.3028 37.7983 23.1028 37.7447 22.9268 37.6431L0.762121 24.8369C0.49723 24.6841 0.303513 24.4328 0.223238 24.1377C0.143067 23.843 0.182543 23.5286 0.333042 23.2629C0.408638 23.1306 0.5096 23.0145 0.630148 22.9213C0.750991 22.8279 0.889127 22.7593 1.0366 22.7194C1.18407 22.6796 1.33796 22.6694 1.48941 22.6893C1.64087 22.7092 1.78773 22.7593 1.91989 22.8359L23.5032 35.2019L45.5236 22.6891C45.6747 22.6694 45.8281 22.6797 45.9752 22.7194C46.1227 22.7593 46.2608 22.8279 46.3816 22.9213ZM1.91989 32.6866L23.5032 45.0526L45.5237 32.5398C45.6747 32.5202 45.8281 32.5305 45.9752 32.5702C46.1227 32.61 46.2608 32.6786 46.3816 32.7721C46.502 32.8652 46.6032 32.9816 46.6787 33.1136C46.8292 33.3793 46.8687 33.6938 46.7886 33.9884C46.7083 34.2834 46.5138 34.5353 46.2488 34.6881L24.0847 47.4941C23.9087 47.5956 23.7091 47.6491 23.5059 47.6491C23.3028 47.6491 23.1028 47.5955 22.9268 47.4939L0.762121 34.6876C0.497231 34.5349 0.303513 34.2835 0.223238 33.9884C0.14304 33.6937 0.182568 33.3792 0.333193 33.1134C0.408773 32.9812 0.509681 32.8652 0.63015 32.7721C0.75099 32.6786 0.889125 32.61 1.0366 32.5702C1.18407 32.5304 1.33796 32.5201 1.48942 32.54C1.64086 32.5599 1.78772 32.6101 1.91989 32.6866Z" fill="#1A1A1A"/>
</svg>
