<svg width="47" height="48" viewBox="0 0 47 48" fill="none" xmlns="http://www.w3.org/2000/svg">
<path fill-rule="evenodd" clip-rule="evenodd" d="M25.9134 16.5158C25.9134 15.8531 26.4507 15.3158 27.1134 15.3158H36.4467C37.1095 15.3158 37.6467 15.8531 37.6467 16.5158C37.6467 17.1786 37.1095 17.7158 36.4467 17.7158H27.1134C26.4507 17.7158 25.9134 17.1786 25.9134 16.5158ZM13.2144 16.9198C13.5268 17.2322 14.0333 17.2322 14.3458 16.9198L18.2649 13.0006C18.7335 12.532 19.4933 12.532 19.9619 13.0006C20.4306 13.4693 20.4306 14.2291 19.9619 14.6977L14.6286 20.031C14.16 20.4997 13.4002 20.4997 12.9315 20.031L10.2649 17.3644C9.79625 16.8957 9.79625 16.1359 10.2649 15.6673C10.7335 15.1987 11.4933 15.1987 11.9619 15.6673L13.2144 16.9198ZM13.2144 31.5864C13.5268 31.8988 14.0333 31.8988 14.3458 31.5864L18.2649 27.6673C18.7335 27.1987 19.4933 27.1987 19.9619 27.6673C20.4306 28.1359 20.4306 28.8957 19.9619 29.3644L14.6286 34.6977C14.16 35.1663 13.4002 35.1663 12.9316 34.6977L10.2649 32.031C9.79625 31.5624 9.79626 30.8026 10.2649 30.334C10.7335 29.8653 11.4933 29.8653 11.9619 30.334L13.2144 31.5864ZM25.9136 31.1825C25.9136 30.5198 26.4508 29.9825 27.1136 29.9825H36.4466C37.1093 29.9825 37.6466 30.5198 37.6466 31.1825C37.6466 31.8452 37.1093 32.3825 36.4466 32.3825H27.1136C26.4508 32.3825 25.9136 31.8452 25.9136 31.1825ZM0.580078 5.84917C0.580078 2.97729 2.9082 0.64917 5.78008 0.64917H41.7801C44.652 0.64917 46.9801 2.97729 46.9801 5.84917V41.8492C46.9801 44.7211 44.652 47.0492 41.7801 47.0492H5.78008C2.9082 47.0492 0.580078 44.7211 0.580078 41.8492V5.84917ZM5.78008 3.04917C4.23368 3.04917 2.98008 4.30277 2.98008 5.84917V41.8492C2.98008 43.3956 4.23368 44.6492 5.78008 44.6492H41.7801C43.3265 44.6492 44.5801 43.3956 44.5801 41.8492V5.84917C44.5801 4.30277 43.3265 3.04917 41.7801 3.04917H5.78008Z" fill="#D23200"/>
</svg>
