<svg width="47" height="46" viewBox="0 0 47 46" fill="none" xmlns="http://www.w3.org/2000/svg">
<path fill-rule="evenodd" clip-rule="evenodd" d="M2.32139 16.4408L3.08564 15.6L2.32139 14.7593C1.3349 13.674 0.784027 12.2626 0.774414 10.7961V6.00005C0.774414 4.42201 1.40129 2.90861 2.51713 1.79276C3.63297 0.676922 5.14638 0.0500488 6.72441 0.0500488H40.3244C41.9025 0.0500488 43.4159 0.676922 44.5317 1.79276C45.6475 2.90861 46.2744 4.42201 46.2744 6.00005V10.7963C46.2648 12.2627 45.7139 13.674 44.7274 14.7593L43.9632 15.6L44.7274 16.4408C45.7139 17.5261 46.2648 18.9374 46.2744 20.4038V25.1963C46.2648 26.6627 45.7139 28.074 44.7274 29.1593L43.9632 30L44.7274 30.8408C45.7139 31.9261 46.2648 33.3374 46.2744 34.8038V39.6001C46.2744 41.1781 45.6475 42.6915 44.5317 43.8073C43.4159 44.9232 41.9025 45.55 40.3244 45.55H6.72441C5.14638 45.55 3.63297 44.9232 2.51713 43.8073C1.40129 42.6915 0.774414 41.1781 0.774414 39.6001V34.804C0.784027 33.3375 1.3349 31.9261 2.32139 30.8408L3.08564 30L2.32139 29.1593C1.3349 28.074 0.784027 26.6626 0.774414 25.1961V20.404C0.784027 18.9375 1.3349 17.5261 2.32139 16.4408ZM30.0855 36.2439C30.2746 36.1175 30.497 36.05 30.7244 36.05C31.0294 36.05 31.3219 36.1712 31.5376 36.3869C31.7533 36.6025 31.8744 36.8951 31.8744 37.2001C31.8744 37.4275 31.807 37.6498 31.6806 37.839C31.5542 38.0281 31.3746 38.1755 31.1645 38.2625C30.9544 38.3496 30.7231 38.3723 30.5001 38.328C30.277 38.2836 30.0721 38.1741 29.9112 38.0132C29.7504 37.8524 29.6409 37.6475 29.5965 37.4244C29.5521 37.2013 29.5749 36.9701 29.662 36.76C29.749 36.5498 29.8964 36.3702 30.0855 36.2439ZM9.12441 36.05H16.3244C16.6294 36.05 16.9219 36.1712 17.1376 36.3869C17.3533 36.6025 17.4744 36.8951 17.4744 37.2001C17.4744 37.5051 17.3533 37.7976 17.1376 38.0132C16.9219 38.2289 16.6294 38.3501 16.3244 38.3501H9.12441C8.81941 38.3501 8.52691 38.2289 8.31124 38.0132C8.09558 37.7976 7.97441 37.5051 7.97441 37.2001C7.97441 36.8951 8.09558 36.6025 8.31124 36.3869C8.52691 36.1712 8.81941 36.05 9.12441 36.05ZM37.2855 36.2439C37.4746 36.1175 37.697 36.05 37.9244 36.05C38.2294 36.05 38.5219 36.1712 38.7376 36.3869C38.9533 36.6025 39.0744 36.895 39.0744 37.2001C39.0744 37.4275 39.007 37.6498 38.8806 37.839C38.7542 38.0281 38.5746 38.1755 38.3645 38.2625C38.1544 38.3496 37.9231 38.3723 37.7001 38.328C37.477 38.2836 37.2721 38.1741 37.1112 38.0132C36.9504 37.8524 36.8409 37.6475 36.7965 37.4244C36.7521 37.2013 36.7749 36.9701 36.862 36.76C36.949 36.5498 37.0964 36.3702 37.2855 36.2439ZM30.0855 21.8439C30.2746 21.7175 30.497 21.65 30.7244 21.65C31.0294 21.65 31.3219 21.7712 31.5376 21.9869C31.7533 22.2025 31.8744 22.4951 31.8744 22.8C31.8744 23.0275 31.807 23.2498 31.6806 23.439C31.5542 23.6281 31.3746 23.7755 31.1645 23.8625C30.9544 23.9496 30.7231 23.9723 30.5001 23.928C30.277 23.8836 30.0721 23.7741 29.9112 23.6132C29.7504 23.4524 29.6409 23.2475 29.5965 23.0244C29.5521 22.8013 29.5749 22.5701 29.662 22.36C29.749 22.1498 29.8964 21.9702 30.0855 21.8439ZM9.12441 21.65H16.3244C16.6294 21.65 16.9219 21.7712 17.1376 21.9869C17.3533 22.2025 17.4744 22.4951 17.4744 22.8C17.4744 23.105 17.3533 23.3976 17.1376 23.6132C16.9219 23.8289 16.6294 23.9501 16.3244 23.9501H9.12441C8.81942 23.9501 8.52691 23.8289 8.31124 23.6132C8.09557 23.3976 7.97441 23.105 7.97441 22.8C7.97441 22.4951 8.09557 22.2025 8.31124 21.9869C8.52691 21.7712 8.81942 21.65 9.12441 21.65ZM37.2855 7.44386C37.4746 7.3175 37.697 7.25005 37.9244 7.25005C38.2294 7.25005 38.5219 7.37121 38.7376 7.58688C38.9533 7.80254 39.0744 8.09505 39.0744 8.40005C39.0744 8.6275 39.007 8.84984 38.8806 9.03895C38.7542 9.22807 38.5746 9.37547 38.3645 9.46251C38.1544 9.54955 37.9231 9.57233 37.7001 9.52795C37.477 9.48358 37.2721 9.37405 37.1112 9.21322C36.9504 9.05239 36.8409 8.84748 36.7965 8.6244C36.7521 8.40133 36.7749 8.1701 36.862 7.95996C36.949 7.74983 37.0964 7.57022 37.2855 7.44386ZM37.2855 21.8439C37.4746 21.7175 37.697 21.65 37.9244 21.65C38.2294 21.65 38.5219 21.7712 38.7376 21.9869C38.9533 22.2025 39.0744 22.495 39.0744 22.8C39.0744 23.0275 39.007 23.2498 38.8806 23.439C38.7542 23.6281 38.5746 23.7755 38.3645 23.8625C38.1544 23.9496 37.9231 23.9723 37.7001 23.928C37.477 23.8836 37.2721 23.7741 37.1112 23.6132C36.9504 23.4524 36.8409 23.2475 36.7965 23.0244C36.7521 22.8013 36.7749 22.5701 36.862 22.36C36.949 22.1498 37.0964 21.9702 37.2855 21.8439ZM42.9054 42.181C43.5899 41.4965 43.9744 40.5681 43.9744 39.6001V34.8C43.9744 33.832 43.5899 32.9036 42.9054 32.2191C42.2208 31.5346 41.2925 31.1501 40.3244 31.1501H6.72441C5.75638 31.1501 4.82798 31.5346 4.14348 32.2191C3.45897 32.9036 3.07441 33.832 3.07441 34.8V39.6001C3.07441 40.5681 3.45897 41.4965 4.14348 42.181C4.82798 42.8655 5.75638 43.25 6.72441 43.25H40.3244C41.2925 43.25 42.2208 42.8655 42.9054 42.181ZM42.9054 27.781C43.5899 27.0965 43.9744 26.1681 43.9744 25.2001V20.4C43.9744 19.432 43.5899 18.5036 42.9054 17.8191C42.2208 17.1346 41.2925 16.75 40.3244 16.75H6.72441C5.75637 16.75 4.82798 17.1346 4.14348 17.8191C3.45897 18.5036 3.07441 19.432 3.07441 20.4V25.2001C3.07441 26.1681 3.45897 27.0965 4.14348 27.781C4.82798 28.4655 5.75637 28.85 6.72441 28.85H40.3244C41.2925 28.85 42.2208 28.4655 42.9054 27.781ZM42.9054 13.381C43.5899 12.6965 43.9744 11.7681 43.9744 10.8V6.00005C43.9744 5.03201 43.5899 4.10362 42.9054 3.41911C42.2208 2.7346 41.2925 2.35005 40.3244 2.35005H6.72441C5.75637 2.35005 4.82798 2.7346 4.14348 3.41911C3.45897 4.10362 3.07441 5.03201 3.07441 6.00005V10.8C3.07441 11.7681 3.45897 12.6965 4.14348 13.381C4.82798 14.0655 5.75637 14.45 6.72441 14.45H40.3244C41.2925 14.45 42.2208 14.0655 42.9054 13.381ZM30.0855 7.44386C30.2746 7.3175 30.497 7.25005 30.7244 7.25005C31.0294 7.25005 31.3219 7.37121 31.5376 7.58688C31.7533 7.80254 31.8744 8.09505 31.8744 8.40005C31.8744 8.6275 31.807 8.84984 31.6806 9.03895C31.5542 9.22807 31.3746 9.37547 31.1645 9.46251C30.9544 9.54955 30.7231 9.57233 30.5001 9.52795C30.277 9.48358 30.0721 9.37405 29.9112 9.21322C29.7504 9.05239 29.6409 8.84748 29.5965 8.6244C29.5521 8.40133 29.5749 8.1701 29.662 7.95996C29.749 7.74983 29.8964 7.57022 30.0855 7.44386ZM9.12441 7.25005H16.3244C16.6294 7.25005 16.9219 7.37121 17.1376 7.58688C17.3533 7.80254 17.4744 8.09505 17.4744 8.40005C17.4744 8.70505 17.3533 8.99755 17.1376 9.21322C16.9219 9.42889 16.6294 9.55005 16.3244 9.55005H9.12441C8.81942 9.55005 8.52691 9.42889 8.31124 9.21322C8.09557 8.99755 7.97441 8.70505 7.97441 8.40005C7.97441 8.09505 8.09557 7.80254 8.31124 7.58688C8.52691 7.37121 8.81942 7.25005 9.12441 7.25005Z" fill="white"/>
</svg>
